<?xml version="1.0" encoding="UTF-8"?>
<svg id="Layer_1" data-name="Layer 1" xmlns="http://www.w3.org/2000/svg" viewBox="0 0 99.21 50.18">
  <defs>
    <style>
      .cls-1 {
        fill: #e93538;
        stroke-width: 0px;
      }
    </style>
  </defs>
  <path class="cls-1" d="M0,37.99c0-.39,0-.78,0-1.17v-1.21c0-1.03,0-2.05,0-3.08,0-.36.11-.66.33-.87.21-.2.5-.3.85-.29.42.01.84.07,1.25.12l.14.02c.33.04.66.09.99.14.29.04.58.09.87.12.33.04.65.08.98.12.37.05.75.09,1.12.14.43.06.86.12,1.3.19.46.07.92.13,1.38.2.42.06.85.11,1.27.16.41.05.82.1,1.23.16.57.08,1.13.16,1.7.24.43.06.85.12,1.28.18-.38-.98-.72-1.77-1.07-2.49-.88-1.79-1.91-3.45-3.06-4.92-.58-.75-1.21-1.48-1.89-2.18-1.03-1.07-1.89-1.93-2.71-2.71-.67-.63-1.33-1.29-1.97-1.93l-.2-.2c-.42-.41-.52-.85-.33-1.35.4-.99.79-2.01,1.18-2.98l.46-1.17c.21-.52.41-1.04.61-1.57.5-1.27,1.01-2.59,1.53-3.88.1-.24.19-.49.28-.73.19-.5.38-1.03.63-1.52.19-.38.51-.63.88-.68.38-.05.76.11,1.04.44.19.22.38.43.57.63,1.19,1.26,2.31,2.28,3.43,3.13,1.76,1.33,3.69,2.47,5.72,3.37,1.76.78,3.64,1.3,5.46,1.81l.17.05c.17.05.28.02.4-.08.52-.45,1.06-.9,1.58-1.33l.18-.15c.4-.33.8-.65,1.19-.98.56-.46,1.13-.92,1.69-1.39.53-.44,1.07-.89,1.6-1.34.47-.4.94-.8,1.42-1.19.37-.31.75-.62,1.12-.92.38-.31.75-.61,1.12-.92.55-.46,1.1-.92,1.65-1.39.57-.48,1.13-.95,1.7-1.43.52-.43,1.04-.86,1.56-1.29.6-.49,1.2-.99,1.79-1.48.69-.57,1.27-.53,1.85.13.08.09.15.19.22.29l.03.04c.25.36.5.72.75,1.08.48.69.96,1.39,1.44,2.08.43.62.87,1.24,1.31,1.86.51.72,1.02,1.44,1.52,2.16.4.57.39.89-.02,1.43-.47.61-.95,1.22-1.42,1.82-.2.25-.4.5-.6.75l-.89,1.13c-.72.91-1.44,1.83-2.17,2.74-.53.68-1.07,1.35-1.61,2.03-.68.85-1.35,1.7-2.03,2.56-.03.04-.05.06-.06.08.02.01.05.03.09.04,1.57.71,3.14,1.41,4.71,2.12,1.28.58,2.55,1.16,3.82,1.74l.19.09c.3.14.6.28.9.42.62.29,1.26.59,1.9.86.27.11.54.24.8.37.47.23.92.45,1.41.58,1.32.36,2.34.34,3.31-.05,1.23-.5,2.11-1.3,2.7-2.44.53-1.03,1.05-2.08,1.56-3.1.23-.46.46-.92.69-1.38.75-1.5,2.36-2.14,3.92-1.54.55.21,1.11.44,1.65.66.62.25,1.26.52,1.9.76.5.19,1,.41,1.48.63.32.14.65.29.98.43.64.27,1.28.52,1.93.78.52.21,1.04.42,1.55.63.21.09.42.17.63.26.77.32,1.57.65,2.37.93.51.17.9.48,1.16.91.37.6.61,1.26.83,1.9.06.16.12.33.17.49.44,1.2.78,2.41,1.03,3.33.21.8.37,1.62.52,2.41.04.22.08.43.12.65.12.62.2,1.25.27,1.86.02.19.04.38.07.56,0,.05.02.15.03.22.07-.03.17-.07.23-.1,1.63-.78,3.27-1.55,4.9-2.33l1.74-.83c.81-.38,1.61-.77,2.42-1.15.59-.28,1.22-.42,1.89-.42,1.42,0,2.6.55,3.5,1.6,1.04,1.22,1.35,2.66.91,4.28-.28,1.03-.9,1.86-1.84,2.48-.56.37-1.16.67-1.73.96-.29.15-.6.3-.89.46-.67.36-1.35.72-2.01,1.06-.4.21-.8.41-1.2.62-1.96,1.03-3.92,2.07-5.88,3.11l-.44.23c-.7.37-1.41.75-2.12,1.13-1.28.7-2.65,1.26-4.06,1.67-1.01.29-2.02.46-2.78.58-.83.13-1.58.23-2.36.19-.1,0-.23,0-.35,0-.95.1-1.92.14-2.85.18-.29.01-.57.02-.86.04-.19,0-.39.02-.58.03-.6.04-1.23.07-1.85.04-.03,0-.05,0-.08,0-.7.09-1.42.12-2.11.16h-.22c-.29.02-.59.04-.88.05-.56.02-1.13.05-1.7.08-1.09.07-2.2.12-3.27.16l-.41.02c-.24.01-.48.02-.71.02-.39,0-.8.01-1.19.05-.2.02-.41.02-.6.03-.22,0-.42,0-.63.03-.44.05-.87.07-1.31.07-.64,0-1.28-.04-1.91-.08l-.24-.02c-1.12-.07-2.06-.15-3-.33l-.41-.07c-.84-.15-1.71-.31-2.56-.53-.71-.18-1.47-.39-2.24-.65-1.19-.4-2.49-.86-4.08-1.44-1.59-.58-3.09-.89-4.6-.92-.52-.01-1.05.04-1.57.09l-.23.02c-.92.09-1.8.29-2.62.62-2.02.8-3.72,1.31-5.35,1.6-1.13.2-2.2.31-3.24.33-1.77.04-3.56-.03-5.38-.12-.38-.02-.77-.03-1.14-.03h-.35c-.47-.02-.95-.05-1.41-.08-.67-.04-1.37-.08-2.05-.07-.25,0-.51,0-.75-.02-.15,0-.29-.01-.43-.02-.55-.01-1.1-.04-1.64-.07-.47-.02-.95-.05-1.42-.06-.54-.02-.97-.07-1.35-.15-1.74-.39-3.18-1.24-4.27-2.53C.65,44.22.02,42.55,0,40.69c0-.9,0-1.81,0-2.7ZM2.31,37.53v1.14c0,.7,0,1.41,0,2.11,0,1.34.49,2.51,1.49,3.58.74.79,1.68,1.32,2.79,1.57.31.07.63.08.97.1.22.01.45.02.68.05.01,0,.02,0,.03,0,0-.02,0-.06,0-.13v-.22c0-.74,0-1.49,0-2.23,0-.49.32-.97.76-1.12.47-.17.92-.04,1.27.35.24.27.27.6.27.86v.46c0,.66,0,1.35,0,2.02,0,.09.01.11.01.11,0,0,.03.02.12.02,1.33.02,2.35.04,3.31.07.02,0,.04,0,.05,0,0-.02,0-.04,0-.07,0-.69,0-1.37,0-2.06v-.54c0-.26.03-.57.24-.83.33-.41.77-.56,1.22-.41.53.17.83.59.84,1.16,0,.61,0,1.21,0,1.82v.78c0,.09,0,.19,0,.24.05,0,.15.02.25.02,1.07.08,2.03.12,2.9.12.09,0,.19,0,.26,0,0-.04,0-.11,0-.17v-1.22c0-.56,0-1.12,0-1.68,0-.63.47-1.11,1.1-1.13.3,0,.59.11.8.33.22.21.34.5.34.79,0,.9.01,1.92,0,2.93,0,.1.01.13.01.13,0,0,.04.02.14.02,1.19-.02,2.43-.18,3.79-.5,1-.24,1.9-.52,2.77-.87,1-.4,2.33-.89,3.76-1.1l.15-.02c.44-.06.89-.13,1.35-.12.14,0,.28-.01.42-.03.17-.02.34-.04.52-.03,1.52.06,2.85.26,4.05.6.85.24,1.68.55,2.49.85.36.13.71.26,1.07.39,1.52.54,3.29,1.14,5.12,1.52,1,.21,2.09.38,3.4.53.17.02.34.03.52.03.15,0,.31,0,.47.02.98.09,2.05.11,3.27.06.36-.01.71-.03,1.07-.05.55-.03,1.09-.05,1.64-.07.8-.03,1.63-.07,2.46-.12,1.51-.09,2.73-.15,3.86-.18.55-.02,1.1-.06,1.64-.09.43-.03.88-.06,1.32-.08.32-.01.65-.03.98-.04.57-.02,1.15-.04,1.72-.08,1.26-.08,2.43-.14,3.59-.18,1.78-.05,3.56-.37,5.27-.93,1.37-.45,2.67-1.14,3.93-1.81l.17-.09c.37-.19.73-.39,1.1-.59.54-.29,1.08-.58,1.63-.86.99-.52,1.98-1.04,2.98-1.56.95-.5,1.91-1,2.86-1.5.5-.26.99-.52,1.48-.79.83-.44,1.7-.9,2.55-1.34.69-.36,1.12-.88,1.27-1.56.17-.78-.05-1.54-.59-2.1-.43-.44-1.01-.69-1.59-.69-.13,0-.26.01-.39.04-.27.05-.53.14-.86.3-.71.33-1.41.67-2.11,1.02-.57.27-1.13.55-1.7.82-.64.31-1.29.61-1.94.91-.97.46-1.97.93-2.95,1.4-1.42.69-3.04,1.48-4.7,2.12-1.74.67-3.61,1.23-5.57,1.67-1.11.25-2.32.46-3.83.66-1.19.16-2.49.25-4.09.3-.98.03-1.85.07-2.67.12-2.3.14-4.61.13-6.77.1-1.19-.02-2.17-.05-3.1-.11l-.34-.02c-.89-.06-1.81-.11-2.71-.16-.61-.03-1.23-.11-1.82-.18-.27-.03-.54-.07-.81-.09-.25-.03-.49-.05-.74-.08-.52-.05-1.07-.11-1.6-.18-.6-.08-1.2-.17-1.79-.26l-1.19-.18c-.66-.1-1.35-.2-2.02-.32-.7-.12-1.62-.28-2.54-.49-.66-.14-1.33-.3-1.97-.45-.46-.11-.92-.22-1.38-.32-1.22-.28-2.49-.61-4.13-1.08-1.26-.36-2.7-.77-4.08-1.24-1.32-.45-2.55-.71-3.75-.8-.55-.04-1.1-.13-1.64-.22-.3-.05-.62-.1-.93-.14-.82-.11-1.71-.22-2.7-.33-.2-.02-.4-.06-.59-.1-.21-.04-.41-.08-.62-.1-.63-.06-1.27-.15-1.89-.23-.29-.04-.59-.08-.88-.12-.86-.11-1.7-.22-2.53-.36-.46-.08-.93-.13-1.38-.19-.22-.03-.45-.06-.67-.09-.27-.04-.53-.07-.8-.11-.39-.05-.79-.11-1.18-.16-.29-.04-.57-.07-.86-.11-.56-.07-1.14-.14-1.7-.23-.29-.05-.59-.08-.87-.11-.49-.06-1-.12-1.49-.24-.02,0-.03,0-.04,0,0,.01,0,.03,0,.05,0,.91,0,1.82,0,2.72v.97ZM78.47,25.55c-.06-.11-.16-.12-.19-.12,0,0,0,0,0,0-.09,0-.17.05-.21.12-.3.49-.53,1.02-.76,1.53l-.08.18c-.49,1.1-.89,2.26-1.23,3.55-.28,1.05-.5,2.15-.65,3.25-.11.8-.15,1.62-.19,2.42v.05c-.01.22-.02.45-.02.66,0,.22-.01.43-.02.61,0,.12,0,.23,0,.33,0,.23,0,.45,0,.66,0,.04,0,.06,0,.07.01,0,.04,0,.08,0,.39-.09.8-.19,1.2-.32l.34-.11c.75-.24,1.52-.49,2.26-.78.68-.27,1.39-.56,2.16-.9.04-.02.07-.03.06-.14-.12-1.66-.37-3.31-.75-5.05-.4-1.81-1-3.55-1.58-5.16-.09-.25-.21-.51-.39-.85ZM64.86,20.88c-.42.75-.79,1.54-1.16,2.3-.26.54-.52,1.1-.8,1.64-.39.75-.82,1.54-1.45,2.21-1.2,1.27-2.6,2.01-4.17,2.21-1.3.16-2.37.09-3.36-.24-.47-.16-.92-.36-1.35-.56-.18-.08-.37-.17-.56-.25l-.33-.14c-.86-.37-1.75-.76-2.6-1.18-.67-.34-1.37-.64-2.05-.94-.51-.22-1.04-.45-1.55-.7-.21-.1-.43-.2-.64-.3-.6-.28-1.22-.58-1.83-.85-.53-.23-1.07-.48-1.59-.72-.9-.41-1.84-.84-2.78-1.21-.44-.17-.76-.51-.85-.9-.09-.37.02-.76.32-1.1.15-.17.29-.35.42-.52l.14-.18c.21-.27.43-.55.64-.82.47-.61.96-1.24,1.47-1.83.26-.3.5-.63.74-.95.08-.1.16-.21.23-.32-.75.55-1.5,1.12-2.22,1.68-.41.32-.82.64-1.24.95-.52.4-1.05.81-1.55,1.21-.65.51-1.33,1.04-2.01,1.55-.28.21-.56.42-.83.64-.39.3-.79.61-1.2.91-.31.22-.61.47-.91.72-.29.24-.6.49-.91.72-.56.4-1.11.84-1.65,1.27-.32.26-.66.53-.99.78-.35.27-.72.53-1.07.78-.47.33-.95.68-1.4,1.05-.37.3-.74.6-1.11.88-.29.23-.58.46-.87.69-.75.6-1.34.55-1.92-.16-.39-.48-.77-.96-1.16-1.45-.52-.66-1.06-1.33-1.6-1.99-.31-.38-.62-.77-.93-1.14-.39-.49-.79-.99-1.21-1.48-.23-.27-.34-.57-.31-.88.03-.33.21-.64.51-.89.47-.39.95-.78,1.42-1.18.4-.33.8-.67,1.2-1,.28-.23.57-.47.85-.7.31-.26.63-.51.94-.77.53-.44,1.09-.92,1.7-1.44.05-.05.11-.09.17-.14-1.2-.33-2.28-.68-3.31-1.07-1.69-.64-3.39-1.48-5.06-2.5-.63-.39-1.29-.83-2.05-1.4-.98-.73-1.86-1.46-2.67-2.25-.1-.09-.19-.18-.29-.27-.18-.16-.36-.33-.52-.51,0,0,0,0,0,0-.15.39-.31.78-.46,1.16-.12.3-.24.59-.35.89-.29.74-.58,1.49-.87,2.23-.34.87-.68,1.74-1.02,2.61-.29.75-.61,1.55-.94,2.35-.05.11-.04.16.08.28.4.4.8.8,1.2,1.2.64.65,1.31,1.32,1.98,1.96,1.57,1.48,2.94,3.07,4.09,4.71,1,1.43,1.88,2.96,2.63,4.57.57,1.22.97,2.26,1.28,3.25.03.1.09.17.29.19.36.05.72.09,1.09.13.61.07,1.24.15,1.86.24.95.14,1.8.26,2.58.36.5.06,1,.14,1.49.21.31.04.62.09.92.13.34.05.65.15.96.25.12.04.23.08.35.11.49.15.97.3,1.46.45,1.01.31,2.06.64,3.1.93.04.01.06.01.07.01,0-.01.01-.03.02-.06.16-.53.33-1.05.49-1.58.31-.98.63-1.99.91-3,.52-1.87,2.15-3.23,4.04-3.39.79-.07,1.53.13,2.21.34.99.3,1.98.63,2.94.94.4.13.8.26,1.2.39l1.07.35c.74.24,1.48.48,2.23.72.49.16.99.31,1.48.47.97.31,1.98.63,2.97.96,1.92.65,3.14,2,3.63,4.03.16.66.16,1.33.15,2.02,0,.3,0,.6,0,.91,0,.22,0,.44,0,.66,0,.07.01.09.01.09,0,0,.02.02.1.02,1.9.09,3.84.07,5.71.06.66,0,1.32-.01,1.98-.01.6,0,1.22-.04,1.82-.07.25-.01.5-.03.75-.04.38-.02.76-.03,1.14-.04.53-.02,1.08-.03,1.62-.07,1.03-.07,2.13-.17,3.24-.38.57-.11,1.09-.19,1.57-.26.19-.03.2-.06.19-.21-.02-.54-.02-1.09,0-1.55.05-2.04.21-3.73.51-5.32.33-1.74.8-3.42,1.41-5.01.31-.82.7-1.78,1.22-2.7.01-.03.02-.04.03-.06-.01,0-.03-.02-.05-.03-.22-.09-.45-.18-.67-.26-.37-.14-.75-.28-1.11-.46-.82-.4-1.7-.74-2.54-1.06-.67-.25-1.35-.51-2.02-.81-.2-.09-.4-.18-.6-.27-.97-.44-1.96-.89-2.98-1.23-.53-.18-.85-.06-1.13.45ZM19.49,22.42s-.04.04-.05.06h0c.05.08.1.15.16.22l.3.37c.59.74,1.18,1.48,1.77,2.22.45.55.91,1.11,1.35,1.65l.03.03s.02.02.02.03c0,0,.03,0,.06-.04.33-.25.66-.5.99-.75.67-.51,1.37-1.04,2.03-1.58.52-.42,1.06-.82,1.58-1.2.58-.43,1.19-.87,1.75-1.34.69-.58,1.42-1.13,2.13-1.67.54-.41,1.11-.84,1.65-1.28.6-.48,1.23-.96,1.83-1.42.35-.26.69-.52,1.03-.79.3-.23.6-.47.91-.71.54-.43,1.11-.87,1.68-1.29.5-.36,1-.75,1.47-1.13.43-.34.87-.68,1.32-1.01.56-.41,1.12-.85,1.66-1.28.28-.22.56-.44.85-.66.61-.47,1.22-.94,1.84-1.41l.7-.54s.06-.05.09-.07c.05-.04.1-.08.15-.12.1-.08.21-.18.24-.22-.02-.05-.09-.15-.16-.25l-.02-.03c-.44-.62-.88-1.25-1.32-1.88-.27-.39-.55-.79-.82-1.18-.32-.46-.65-.92-.98-1.38-.22-.31-.43-.61-.65-.92,0,0,0-.01-.01-.02,0,0,0,0,0,0-.36.3-.72.6-1.09.9l-1.12.92c-.48.4-.96.79-1.44,1.19-.75.62-1.49,1.24-2.23,1.86-.55.46-1.1.91-1.65,1.37-.33.27-.65.54-.98.81-.47.39-.93.78-1.4,1.17l-.56.47c-.35.3-.71.59-1.07.89-.29.23-.57.47-.85.71-.42.35-.84.7-1.26,1.05-.34.28-.68.57-1.02.85-.36.3-.71.59-1.07.89-.42.35-.84.7-1.26,1.04-.33.27-.65.54-.98.82-.45.38-.9.75-1.35,1.13-.62.52-1.25,1.03-1.87,1.54l-1.38,1.13c-.34.28-.68.55-1.02.83ZM52.34,39.09c0-.13,0-.26,0-.4,0-.16,0-.32,0-.49,0-.44.02-.9-.12-1.33-.34-1.1-1.06-1.83-2.15-2.2-.97-.32-1.79-.59-2.62-.86-.54-.18-1.09-.35-1.63-.52-.35-.11-.7-.22-1.05-.33-.34-.11-.68-.22-1.01-.32-.55-.18-1.09-.35-1.64-.52-.5-.16-1-.32-1.49-.49-1.06-.36-2.16-.73-3.26-.96-.91-.19-1.57.33-1.97.8-.35.42-.5.94-.65,1.5-.04.16-.09.33-.14.49-.15.49-.3.98-.46,1.46-.2.66-.41,1.33-.62,1.99-.01.04-.02.07-.02.09,0,0,.02,0,.04.02.76.23,1.54.41,2.34.59.3.07.61.14.91.21.59.14,1.2.28,1.81.4,1.62.33,3.23.61,5.16.93.95.16,1.98.3,3.16.43.25.03.49.06.74.09.81.1,1.64.2,2.46.24.36.02.71.05,1.06.08.34.03.7.06,1.05.08.06,0,.09,0,.11,0,0-.01,0-.04,0-.1-.01-.29-.01-.57,0-.87Z"/>
</svg>