<?xml version="1.0" encoding="utf-8"?>
<!-- Generator: Adobe Illustrator 28.1.0, SVG Export Plug-In . SVG Version: 6.00 Build 0)  -->
<svg version="1.1" id="Layer_1" xmlns="http://www.w3.org/2000/svg" xmlns:xlink="http://www.w3.org/1999/xlink" x="0px" y="0px"
	 viewBox="0 0 146.14 99.21" style="enable-background:new 0 0 146.14 99.21;" xml:space="preserve">
<style type="text/css">
	.st0{fill-rule:evenodd;clip-rule:evenodd;fill:#E93538;}
</style>
<g>
	<path class="st0" d="M48.06,25.94c0,0,28.95-18.29,52.22-19.05c0,0,19.25-0.71,13.46,23.6h5.03c0,0,2.97-5.31,3.7-12.81
		c0.37-3.83,0.02-7.8-1.44-10.8c-2.63-5.4-10.11-7.04-15.56-6.87C105.47,0.01,78.96,0.01,48.06,25.94L48.06,25.94z"/>
	<path class="st0" d="M14.55,66.46h2.51c0,0-4.01,13.58,2.33,22.15c0,0,4.84,8.81,22.33,3.59c17.49-5.22,34.31-15.92,48.52-25.53
		c0,0-7.14,9.16-26.93,19.47c0,0-19.07,10.12-32.82,12.57c-14.13,2.52-20.54-4.52-18.97-19C11.87,76.49,12.71,72.1,14.55,66.46
		L14.55,66.46z"/>
	<path class="st0" d="M70.28,44.03c-2.05,0-3.93,1.22-4.94,3.14c-0.21,0.39-0.34,1.01-0.43,1.67h10.98
		c-0.03-0.29-0.07-0.53-0.11-0.71c-0.58-2.39-2.6-4.1-4.89-4.1H70.28L70.28,44.03z M70.27,39.29h0.66c4.73,0,8.73,3.26,9.88,7.64
		c0.36,1.37,0.46,4.42,0.32,6.68h-5.19h-4.89h-6.22c0.09,1.14,0.28,2.35,0.67,3.01c1.04,1.75,2.84,2.86,4.78,2.86
		c2.61,0,4.91-1.98,5.51-4.71h5.24c-0.04,0.31-0.08,0.58-0.13,0.81c-1.03,4.92-5.42,8.64-10.64,8.64h0c-3.81,0-7.21-2.02-9.15-5.04
		c-1.21-1.89-1.57-4.76-1.56-7.6c0.01-2.51,0.26-5.01,1.24-6.75C62.67,41.53,66.22,39.29,70.27,39.29L70.27,39.29z M87.08,39.75
		h5.29v1.63c2.77-2.34,6.35-2.11,6.35-2.11c7.77,0,7.48,7.88,7.48,7.88v16.49h-5.29V47.15c0-3.44-3.58-3.14-3.58-3.14
		c-4.04,0-4.96,3.69-4.96,3.69v15.94h-5.29V39.75L87.08,39.75z M30.93,39.84h5.16v23.76h-5.16V39.84L30.93,39.84z M30.93,31.62h5.16
		v5.78h-5.16V31.62L30.93,31.62z M128.18,31.62h5.16v5.78h-5.16V31.62L128.18,31.62z M128.18,39.84h5.16v23.76h-5.16V39.84
		L128.18,39.84z M43.38,39.75h5.29v1.96c2.28-2.58,4.71-2.8,7.06-2.42v2.57v2.57v0.55c0,0-6.04-1.97-7.06,4.37v14.29h-5.29V39.75
		L43.38,39.75z M114.21,34.09h5.29v5.55h3.59v4.72h-3.59v13.7c0,0.62,0.51,1.12,1.13,1.12h2.49v4.48h-4.6
		c-2.38,0-4.32-1.92-4.32-4.27V44.36h-3.07v-4.72h3.07V34.09L114.21,34.09z M25.87,31.55H13.16h-0.54H0v5.29h10.03v26.75h2.6h0.54
		h2.6V36.84h10.12V31.55L25.87,31.55z"/>
	<path class="st0" d="M140.77,26.29c2.97,0,5.37,2.41,5.37,5.37c0,2.97-2.41,5.37-5.37,5.37c-2.97,0-5.37-2.41-5.37-5.37
		C135.39,28.69,137.8,26.29,140.77,26.29L140.77,26.29z M138.5,34.48v-5.4h2.4c0.48,0,0.85,0.05,1.1,0.15
		c0.25,0.1,0.45,0.27,0.6,0.51c0.15,0.25,0.22,0.52,0.22,0.81c0,0.38-0.12,0.71-0.37,0.97c-0.25,0.26-0.63,0.43-1.15,0.5
		c0.19,0.09,0.33,0.18,0.43,0.27c0.21,0.19,0.41,0.43,0.59,0.72l0.93,1.47h-0.89l-0.71-1.12c-0.21-0.33-0.38-0.57-0.51-0.75
		c-0.14-0.17-0.26-0.29-0.36-0.36c-0.11-0.07-0.22-0.12-0.33-0.14c-0.08-0.02-0.21-0.03-0.4-0.03h-0.83v2.4H138.5L138.5,34.48z
		 M139.22,31.46h1.53c0.33,0,0.58-0.03,0.76-0.1c0.18-0.07,0.32-0.17,0.42-0.32c0.1-0.15,0.14-0.31,0.14-0.48
		c0-0.26-0.09-0.47-0.28-0.63c-0.18-0.16-0.48-0.25-0.88-0.25h-1.71V31.46L139.22,31.46z M140.77,27.09c2.52,0,4.57,2.05,4.57,4.57
		c0,2.52-2.05,4.57-4.57,4.57c-2.52,0-4.57-2.05-4.57-4.57C136.2,29.14,138.24,27.09,140.77,27.09L140.77,27.09z"/>
	<path class="st0" d="M29.51,71.09l0.89-0.08l0.02,0.13c0.02,0.19,0.08,0.4,0.19,0.56c0.11,0.16,0.28,0.27,0.46,0.34
		c0.23,0.1,0.48,0.14,0.73,0.14c0.22,0,0.43-0.03,0.64-0.1c0.15-0.06,0.29-0.14,0.38-0.27c0.08-0.1,0.12-0.22,0.12-0.35
		c0-0.12-0.03-0.23-0.11-0.33c-0.1-0.12-0.26-0.2-0.4-0.25c-0.27-0.1-0.62-0.17-0.89-0.24c-0.32-0.07-0.73-0.17-1.02-0.32
		c-0.24-0.12-0.45-0.29-0.59-0.51c-0.14-0.21-0.2-0.44-0.2-0.69c0-0.28,0.08-0.54,0.24-0.78c0.17-0.26,0.42-0.43,0.7-0.55
		c0.31-0.13,0.65-0.18,0.99-0.18c0.36,0,0.72,0.05,1.05,0.19c0.3,0.12,0.55,0.31,0.73,0.57c0.17,0.26,0.26,0.54,0.27,0.85l0.01,0.13
		l-0.9,0.07l-0.01-0.13c-0.03-0.24-0.11-0.47-0.3-0.62c-0.22-0.17-0.54-0.21-0.81-0.21c-0.25,0-0.61,0.03-0.81,0.19
		c-0.14,0.11-0.23,0.24-0.23,0.43c0,0.14,0.05,0.25,0.15,0.34c0.17,0.15,0.75,0.28,0.96,0.33c0.36,0.08,0.82,0.18,1.16,0.33
		c0.28,0.12,0.54,0.3,0.71,0.55c0.16,0.23,0.24,0.5,0.24,0.78c0,0.3-0.09,0.57-0.26,0.82c-0.18,0.27-0.43,0.46-0.73,0.59
		c-0.33,0.15-0.68,0.21-1.04,0.21c-0.41,0-0.83-0.05-1.21-0.21c-0.33-0.14-0.6-0.35-0.79-0.64c-0.2-0.29-0.29-0.61-0.3-0.96
		L29.51,71.09L29.51,71.09z M34.92,68.66V67.7h0.89v0.96H34.92L34.92,68.66z M34.92,72.95v-3.88h0.89v3.88H34.92L34.92,72.95z
		 M37.83,69.36c0.28-0.25,0.64-0.37,1.05-0.37c0.23,0,0.45,0.04,0.67,0.13c0.18,0.08,0.36,0.19,0.48,0.35
		c0.11,0.15,0.18,0.32,0.22,0.5c0.04,0.19,0.04,0.43,0.04,0.62v2.35h-0.89v-2.33c0-0.15-0.01-0.37-0.06-0.51
		c-0.04-0.1-0.11-0.18-0.2-0.23c-0.11-0.07-0.24-0.09-0.37-0.09c-0.23,0-0.43,0.07-0.61,0.22c-0.21,0.18-0.24,0.58-0.24,0.84v2.1H37
		v-3.88h0.83V69.36L37.83,69.36z M43.92,71.34l0.88,0.12l-0.02,0.13c-0.07,0.41-0.24,0.78-0.56,1.05c-0.32,0.27-0.7,0.38-1.11,0.38
		c-0.51,0-0.96-0.15-1.32-0.52c-0.38-0.4-0.5-0.94-0.5-1.48c0-0.37,0.06-0.74,0.21-1.08c0.14-0.31,0.36-0.56,0.66-0.72
		c0.29-0.16,0.61-0.24,0.95-0.24c0.38,0,0.76,0.09,1.07,0.32c0.3,0.23,0.47,0.55,0.54,0.92l0.03,0.14l-0.86,0.13l-0.03-0.12
		c-0.04-0.18-0.12-0.36-0.27-0.48c-0.13-0.11-0.28-0.15-0.45-0.15c-0.27,0-0.49,0.09-0.67,0.29c-0.22,0.25-0.26,0.65-0.26,0.96
		c0,0.31,0.04,0.72,0.25,0.97c0.17,0.2,0.39,0.28,0.65,0.28c0.2,0,0.38-0.05,0.53-0.19c0.17-0.15,0.24-0.38,0.27-0.6L43.92,71.34
		L43.92,71.34z M46.26,71.29c0.03,0.25,0.11,0.5,0.29,0.69c0.19,0.19,0.41,0.28,0.68,0.28c0.18,0,0.36-0.04,0.51-0.15
		c0.17-0.12,0.27-0.32,0.34-0.51l0.04-0.1l0.9,0.12l-0.04,0.15c-0.1,0.38-0.3,0.7-0.62,0.93c-0.33,0.24-0.73,0.33-1.14,0.33
		c-0.52,0-1.01-0.15-1.38-0.53c-0.38-0.39-0.51-0.92-0.51-1.46c0-0.55,0.13-1.1,0.52-1.5c0.36-0.38,0.82-0.54,1.34-0.54
		c0.51,0,0.95,0.16,1.31,0.53c0.38,0.4,0.51,0.94,0.51,1.48c0,0.06,0,0.11,0,0.17l0,0.13H46.26L46.26,71.29z M53.59,69.19
		c-0.13,0.1-0.27,0.18-0.42,0.26c-0.22,0.12-0.46,0.24-0.7,0.33l-0.17,0.06v-0.86l0.08-0.03c0.33-0.15,0.64-0.33,0.91-0.57
		c0.2-0.17,0.42-0.39,0.54-0.63l0.04-0.07h0.63v5.27h-0.91V69.19L53.59,69.19z M59.2,70.83c-0.1,0.09-0.21,0.16-0.33,0.23
		c-0.24,0.13-0.51,0.2-0.79,0.2c-0.46,0-0.87-0.16-1.19-0.49c-0.35-0.35-0.49-0.79-0.49-1.28c0-0.5,0.15-0.96,0.51-1.32
		c0.35-0.34,0.78-0.5,1.27-0.5c0.36,0,0.7,0.09,1,0.28c0.31,0.19,0.54,0.47,0.69,0.8c0.19,0.43,0.23,0.99,0.23,1.46
		c0,0.51-0.04,1.09-0.23,1.57c-0.14,0.37-0.37,0.7-0.7,0.92c-0.32,0.22-0.69,0.32-1.08,0.32c-0.4,0-0.78-0.1-1.09-0.36
		c-0.31-0.26-0.46-0.61-0.51-1l-0.02-0.14l0.87-0.07l0.02,0.12c0.04,0.19,0.11,0.4,0.26,0.52c0.14,0.12,0.31,0.16,0.48,0.16
		c0.16,0,0.32-0.03,0.46-0.11c0.13-0.08,0.24-0.18,0.32-0.3c0.1-0.16,0.17-0.36,0.22-0.55C59.16,71.15,59.18,70.99,59.2,70.83
		L59.2,70.83z M61.76,70.09c-0.13-0.08-0.25-0.18-0.35-0.3c-0.15-0.2-0.22-0.44-0.22-0.7c0-0.4,0.15-0.74,0.45-1.01
		c0.33-0.3,0.75-0.41,1.18-0.41c0.44,0,0.86,0.11,1.19,0.41c0.3,0.27,0.46,0.61,0.46,1.02c0,0.25-0.07,0.48-0.22,0.68
		c-0.1,0.13-0.22,0.23-0.35,0.31c0.2,0.1,0.37,0.23,0.5,0.41c0.19,0.26,0.28,0.55,0.28,0.87c0,0.46-0.18,0.86-0.52,1.17
		c-0.37,0.34-0.84,0.47-1.34,0.47c-0.5,0-0.97-0.13-1.34-0.47c-0.35-0.32-0.52-0.72-0.52-1.19c0-0.33,0.08-0.64,0.29-0.9
		C61.41,70.31,61.57,70.18,61.76,70.09L61.76,70.09z M68.5,70.07c0.19,0.08,0.36,0.2,0.5,0.37c0.2,0.25,0.29,0.56,0.29,0.89
		c0,0.48-0.19,0.88-0.54,1.21c-0.38,0.34-0.85,0.49-1.36,0.49c-0.46,0-0.88-0.12-1.23-0.42c-0.34-0.29-0.52-0.66-0.57-1.1
		l-0.01-0.13l0.89-0.12l0.03,0.12c0.05,0.24,0.14,0.52,0.33,0.68c0.16,0.14,0.35,0.2,0.57,0.2c0.26,0,0.49-0.08,0.68-0.26
		c0.18-0.18,0.27-0.39,0.27-0.65c0-0.24-0.08-0.44-0.25-0.6c-0.18-0.17-0.4-0.24-0.65-0.24c-0.14,0-0.29,0.03-0.42,0.06l-0.19,0.05
		l0.12-0.86l0.13,0.01c0.03,0,0.06,0.01,0.09,0.01c0.24,0,0.47-0.06,0.68-0.18c0.19-0.12,0.27-0.29,0.27-0.51
		c0-0.18-0.06-0.34-0.2-0.46c-0.15-0.14-0.33-0.19-0.53-0.19c-0.2,0-0.39,0.05-0.54,0.19c-0.17,0.15-0.25,0.38-0.28,0.6l-0.02,0.13
		l-0.91-0.16l0.03-0.13c0.08-0.41,0.26-0.77,0.58-1.03c0.32-0.26,0.71-0.37,1.13-0.37c0.3,0,0.58,0.06,0.85,0.19
		c0.25,0.12,0.46,0.29,0.61,0.52c0.14,0.22,0.21,0.45,0.21,0.71c0,0.24-0.07,0.46-0.21,0.66C68.73,69.89,68.62,69.99,68.5,70.07
		L68.5,70.07z M46.3,70.53h1.77c-0.03-0.17-0.08-0.34-0.19-0.47c-0.18-0.21-0.4-0.31-0.68-0.31c-0.24,0-0.46,0.07-0.64,0.25
		C46.41,70.15,46.33,70.33,46.3,70.53L46.3,70.53z M59.13,69.46c0-0.27-0.06-0.54-0.26-0.74c-0.17-0.18-0.37-0.27-0.61-0.27
		c-0.26,0-0.47,0.1-0.65,0.29c-0.2,0.21-0.28,0.48-0.28,0.77c0,0.26,0.07,0.49,0.26,0.68c0.18,0.18,0.4,0.26,0.65,0.26
		c0.25,0,0.46-0.08,0.64-0.26C59.07,69.99,59.13,69.73,59.13,69.46L59.13,69.46z M62.12,69.07c0,0.19,0.06,0.35,0.2,0.48
		c0.15,0.14,0.33,0.19,0.53,0.19c0.2,0,0.38-0.05,0.52-0.19c0.13-0.12,0.19-0.27,0.19-0.45c0-0.19-0.07-0.34-0.2-0.47
		c-0.15-0.14-0.32-0.19-0.52-0.19c-0.2,0-0.38,0.05-0.52,0.19C62.19,68.75,62.12,68.89,62.12,69.07L62.12,69.07z M61.91,71.38
		c0,0.16,0.04,0.31,0.11,0.45c0.08,0.14,0.19,0.25,0.33,0.32c0.15,0.08,0.32,0.12,0.49,0.12c0.26,0,0.49-0.07,0.67-0.25
		c0.18-0.17,0.26-0.38,0.26-0.62c0-0.25-0.08-0.46-0.27-0.64c-0.19-0.18-0.43-0.25-0.69-0.25c-0.25,0-0.48,0.07-0.66,0.25
		C61.99,70.93,61.91,71.13,61.91,71.38L61.91,71.38z"/>
	<path class="st0" d="M92,73.83v-7.98h1.49v3.54l3.01-3.54h2l-2.78,3.11l2.92,4.87h-1.92l-2.03-3.75l-1.2,1.33v2.41H92L92,73.83z
		 M99.76,67.26v-1.42h1.5v1.42H99.76L99.76,67.26z M99.76,73.83v-5.79h1.5v5.79H99.76L99.76,73.83z M107.96,73.83h-1.28v-0.85
		c-0.21,0.33-0.47,0.58-0.76,0.75c-0.29,0.17-0.58,0.25-0.88,0.25c-0.6,0-1.12-0.27-1.55-0.8c-0.43-0.54-0.64-1.28-0.64-2.24
		c0-0.98,0.21-1.73,0.63-2.24c0.42-0.51,0.94-0.77,1.58-0.77c0.58,0,1.09,0.27,1.52,0.81v-2.88h1.38V73.83L107.96,73.83z
		 M104.28,70.83c0,0.62,0.08,1.07,0.23,1.34c0.22,0.4,0.53,0.6,0.93,0.6c0.32,0,0.59-0.15,0.81-0.45c0.22-0.3,0.33-0.75,0.33-1.35
		c0-0.67-0.11-1.15-0.32-1.44c-0.22-0.29-0.49-0.44-0.83-0.44c-0.33,0-0.6,0.14-0.82,0.43C104.39,69.82,104.28,70.25,104.28,70.83
		L104.28,70.83z M109.88,69.7c0-0.5,0.18-0.93,0.53-1.27c0.35-0.34,0.9-0.51,1.64-0.51c0.71,0,1.23,0.13,1.57,0.39
		c0.51,0.39,0.64,0.77,0.63,1.42l-1.21,0c-0.05-0.23-0.16-0.4-0.31-0.52c-0.15-0.12-0.37-0.18-0.66-0.18
		c-0.36,0-0.62,0.06-0.78,0.17c-0.1,0.08-0.16,0.18-0.16,0.31c0,0.11,0.04,0.2,0.14,0.28c0.12,0.1,0.55,0.25,1.28,0.43
		c0.94,0.24,2,0.58,2,1.76c0,0.59-0.2,1.08-0.59,1.49c-0.39,0.4-1,0.6-1.82,0.6c-0.78,0-1.37-0.15-1.75-0.46
		c-0.57-0.45-0.71-0.9-0.7-1.66l1.34,0c0.06,0.27,0.18,0.47,0.35,0.61c0.17,0.14,0.42,0.21,0.73,0.21c0.4,0,0.69-0.07,0.86-0.2
		c0.12-0.09,0.17-0.22,0.17-0.36c0-0.13-0.05-0.24-0.15-0.33c-0.14-0.12-0.61-0.29-1.42-0.51C110.58,71.1,109.88,70.83,109.88,69.7
		L109.88,69.7z M128.26,73.83v-7.98h1.55v7.98H128.26L128.26,73.83z M135.26,73.83v-0.87c-0.2,0.31-0.46,0.55-0.78,0.74
		c-0.32,0.18-0.67,0.27-1.02,0.27c-0.37,0-0.7-0.09-0.99-0.26c-0.29-0.17-0.5-0.41-0.63-0.72c-0.13-0.31-0.2-0.74-0.2-1.28v-3.67
		h1.44v2.66c0,0.82,0.03,1.31,0.08,1.5c0.05,0.18,0.15,0.33,0.29,0.44c0.14,0.11,0.32,0.16,0.54,0.16c0.25,0,0.47-0.07,0.66-0.22
		c0.2-0.14,0.33-0.32,0.4-0.54c0.07-0.21,0.11-0.73,0.11-1.56v-2.44h1.44v5.79H135.26L135.26,73.83z M138.42,73.83v-7.98h1.44v2.88
		c0.45-0.54,0.97-0.81,1.58-0.81c0.67,0,1.21,0.25,1.65,0.77c0.44,0.51,0.65,1.24,0.65,2.2c0,0.99-0.22,1.75-0.67,2.29
		c-0.44,0.53-0.98,0.8-1.62,0.8c-0.31,0-0.62-0.09-0.92-0.25c-0.3-0.17-0.57-0.42-0.78-0.74v0.85H138.42L138.42,73.83z
		 M139.84,70.83c0,0.6,0.09,1.05,0.27,1.33c0.25,0.41,0.58,0.61,1,0.61c0.32,0,0.59-0.14,0.82-0.43c0.22-0.29,0.34-0.75,0.34-1.37
		c0-0.66-0.11-1.14-0.34-1.43c-0.23-0.29-0.52-0.44-0.87-0.44c-0.35,0-0.64,0.14-0.87,0.43C139.95,69.81,139.84,70.24,139.84,70.83
		L139.84,70.83z M122.93,65.53h0.47c1.75,0,3.21,1.33,3.4,3.03h-1.6c-0.18-0.83-0.92-1.45-1.8-1.45h-0.47
		c-1.01,0-1.84,0.83-1.84,1.84v1.65c0,1.01,0.83,1.84,1.84,1.84h0.47c1.01,0,1.84-0.83,1.84-1.84v-0.02h1.58v0.02
		c0,1.88-1.54,3.42-3.42,3.42h-0.47c-1.88,0-3.42-1.54-3.42-3.42v-1.65C119.51,67.07,121.05,65.53,122.93,65.53L122.93,65.53z"/>
</g>
</svg>
