<?xml version="1.0" encoding="UTF-8"?>
<svg id="Layer_1" data-name="Layer 1" xmlns="http://www.w3.org/2000/svg" viewBox="0 0 99.21 75.39">
  <defs>
    <style>
      .cls-1 {
        fill: #e93538;
        stroke-width: 0px;
      }
    </style>
  </defs>
  <path class="cls-1" d="M87.78,68.22c.02.38.05.78.07,1.31,0,.19.02.35.05.51.07.31.23.54.5.71.33.21.7.23,1.15.07,1.56-.54,2.83-1.03,4-1.55,1.84-.81,3.49-1.68,5.04-2.66.47-.3.67-.69.61-1.2-.04-.4-.12-.81-.18-1.2v-.02c-.08-.41-.15-.82-.23-1.22-.15-.8-.31-1.63-.42-2.45-.23-1.63-.58-3.12-1.08-4.57-.58-1.71-1.26-3.15-2.08-4.4-.46-.7-1.05-1.35-1.87-2.04-1.78-1.5-3.85-2.39-6.15-2.65-.72-.08-1.46-.12-2.17-.15-.45-.02-.91-.05-1.36-.08-.34-.03-.7-.04-1.04-.06-.27-.01-.54-.02-.8-.04-.65-.04-1.3-.09-1.95-.13-.61-.04-1.23-.08-1.84-.12-.49-.03-.98-.06-1.46-.09-.46-.03-.91-.05-1.37-.08-1.26-.08-2.61-.16-3.96-.26-.32-.02-.64-.04-.96-.05-.4-.02-.82-.04-1.23-.08-1.6-.14-3.12-.59-4.53-1.35-1.2-.65-2.18-1.4-3-2.3-.59-.65-1.13-1.37-1.64-2.06-.22-.29-.44-.59-.66-.88-.17-.22-.34-.45-.51-.67-.4-.54-.82-1.1-1.29-1.6-.09-.1-.18-.2-.26-.31-.18-.25-.36-.5-.53-.75-.32-.45-.64-.91-.98-1.35-.64-.86-1.29-1.72-1.93-2.56l-1.23-1.62c-.62-.82-1.24-1.63-1.85-2.45-.49-.64-.97-1.28-1.46-1.92-.49-.64-.98-1.28-1.46-1.92-.33-.43-.66-.87-.98-1.3-.59-.77-1.17-1.55-1.76-2.32-.22-.29-.34-.59-.37-.95-.05-.54-.1-1.09-.16-1.62-.03-.31-.06-.61-.1-.92-.04-.39-.08-.78-.12-1.18-.03-.33-.07-.65-.1-.98-.02-.18-.04-.37-.06-.55-.07-.52-.13-1.07-.1-1.61,0-.05,0-.1-.02-.16-.12-.69-.18-1.4-.24-2.09-.03-.35-.06-.7-.1-1.05-.05-.48-.14-.98-.39-1.43-.78-1.36-1.92-1.98-3.4-1.86-.19.02-.31-.07-.34-.25-.01-.07-.03-.14-.04-.21l-.23-1.29c-.18-1.04-.37-2.07-.56-3.11-.14-.78-.63-1.17-1.41-1.12-1.2.07-2.11.23-2.94.52-2.83.97-4.89,2.87-6.11,5.66-.2.45-.36.92-.48,1.4-.06.24-.2.36-.45.38-.16.01-.33.04-.49.06-.17.02-.35.05-.53.06-.49.04-.99.08-1.47.12-.85.08-1.73.16-2.6.19-.27.01-.55.03-.82.05-.24.02-.49.04-.74.05-.69.03-4.36.1-4.36.1-1.9.02-4.15.01-6.43-.14-.22-.02-.45-.03-.67-.04-.65-.04-1.32-.08-1.98-.15-.11-.01-.21-.02-.32-.04-.3-.04-.61-.07-.91-.05-1.71.11-3.04,1.39-3.25,3.1-.03.28-.02.56,0,.84,0,.14.01.29.01.43,0,1.02.04,2.05.08,3.05.02.55.04,1.09.05,1.64.01.49.02.98.04,1.46.03,1.25.06,2.55.11,3.82.03.65.03,1.31.03,1.94,0,.19,0,.39,0,.58,0,.29,0,.58-.03.86-.07.62-.16,1.26-.24,1.87l-.06.42c-.1.76-.2,1.51-.3,2.27-.13.97-.26,1.93-.38,2.9-.14,1.05-.27,2.09-.41,3.14l-.16,1.22c-.06.44-.11.87-.17,1.31-.12.95-.24,1.9-.37,2.85-.26,1.92-.41,3.87-.43,5.79-.01.98.02,2.02.12,3.4.07,1.07.15,1.88.25,2.64.19,1.41.41,2.78.63,4.07.06.36.02.66-.14.97C.46,60.38.03,62.17,0,64.05c-.01.8,0,1.62,0,2.41,0,.37,0,.73,0,1.1v1.18c0,.94,0,1.89,0,2.83,0,.7.27,1.05.96,1.27,1.15.36,2.41.68,3.88.97.1.02.21.04.31.07.42.09.85.18,1.28.17.58-.01,1.02-.42,1.08-1,0-.09,0-.18,0-.28v-.68c0-.41,0-.82,0-1.23,0-.34.08-.42.41-.43.23,0,.48,0,.71,0,.3,0,.38.09.41.39.01.11.01.23.01.34v.06c0,.23,0,.46,0,.7,0,.48,0,.98,0,1.47.01.56.43,1.03.96,1.08,1.17.11,2.36.1,3.51.08.25,0,.49,0,.74,0,.55,0,.99-.45,1.04-1.04,0-.12,0-.25,0-.37v-.83c0-.48,0-.95,0-1.43,0-.35.08-.43.43-.44.21,0,.48,0,.75,0,.27.01.34.08.36.36,0,.08,0,.16,0,.24v.08c0,.24,0,.47,0,.71,0,.52,0,1.06,0,1.6.01.65.47,1.11,1.1,1.12,1.27.02,2.59.02,4.05,0,.6,0,1.06-.45,1.09-1.06.02-.39.04-.81.05-1.27,0-.41,0-.85,0-1.42,0-.12.03-.21.08-.28.06-.06.13-.08.24-.08h0c.19,0,.38,0,.57,0h.28c.11,0,.19.03.25.09.06.06.09.15.09.26,0,.06,0,.11,0,.17v.12c0,.24,0,.48,0,.72,0,.52,0,1.06,0,1.59.01.7.46,1.15,1.17,1.17.3,0,.61,0,.9,0,.14,0,.27,0,.41,0,.18,0,.36,0,.54,0,.4,0,.82,0,1.23,0,.63-.01,1.06-.39,1.15-1.02.03-.21.04-.41.04-.59v-.28c0-1.14,0-2.27,0-3.41,0-.24,0-.37.09-.44.04-.03.09-.05.15-.05.08,0,.18.02.31.05,1.05.21,2.11.43,3.16.65,2.61.54,5.21,1.09,7.82,1.63,1.73.36,3.45.72,5.18,1.08l1.8.38c.31.07.39.15.4.46,0,.21,0,.42,0,.62,0,.15,0,.29,0,.44,0,.83.46,1.29,1.28,1.3,1.39.02,2.79.01,3.98,0,.41,0,.74-.14.97-.38.22-.24.33-.57.31-.94-.02-.26-.02-.52-.02-.78,0-.1,0-.19,0-.29,0-.52.04-.57.55-.58.16,0,.32-.01.49-.03.17-.01.3-.02.38.06.08.08.09.2.1.37v.26c.01.41.02.84.06,1.26.05.5.39.89.86,1.01.16.04.32.06.51.06.8,0,1.59,0,2.39,0h1.34c.07,0,.15,0,.24-.01.73-.08,1.13-.53,1.13-1.26,0-.43-.02-.86-.03-1.28v-.31c-.02-.31.03-.37.34-.39h.11c.17-.03.36-.04.53-.05.22,0,.36,0,.45.08.09.08.09.22.1.43.01.53.03,1.01.06,1.49.02.35.16.65.41.87.26.22.63.33,1,.29.34-.03.69-.06,1.03-.08.22-.01.45-.03.67-.05l.35-.03c.52-.04,1.06-.08,1.59-.16.5-.08.81-.37.95-.89.07-.27.05-.55.02-.81-.04-.31-.04-.62-.04-.92v-.05c0-.32.08-.41.41-.44.24-.02.48-.02.68-.02.34,0,.4.07.42.41,0,.16.02.32.03.49.01.22.02.43.04.65.03.55.29.9.77,1.1.25.1.51.07.76.03l.37-.05c.47-.07.95-.14,1.42-.22.62-.1,1.26-.21,1.88-.34.61-.13.96-.54.96-1.17,0-.31,0-.68-.04-1.05-.03-.3-.03-.6-.02-.89,0-.27.08-.35.36-.37.19,0,.39-.01.58-.01h.17c.33,0,.37.03.42.36.03.24.04.48.04.71,0,.15,0,.31.01.46.03.39.19.73.46.93.27.2.62.28.99.2.41-.08.83-.19,1.23-.29l.17-.04c.74-.19,1.5-.39,2.24-.59.56-.16.86-.55.86-1.15,0-.6,0-1.1-.02-1.56,0-.13-.02-.25-.03-.38-.02-.19-.03-.39-.03-.58,0-.41.06-.47.46-.49.22,0,.45-.02.67-.03.28-.02.36.05.38.33ZM30.23,7.28c.03-.1.06-.17.09-.24,1.1-2.46,2.99-3.99,5.61-4.56.07-.01.13-.02.2-.03h.09c.13-.02.29.01.33.26.08.43.15.86.23,1.29.12.69.24,1.37.36,2.06.06.35,0,.43-.36.5-.89.16-1.92.34-2.94.51-.8.13-1.62.25-2.4.36l-.26.04c-.17.02-.34.04-.51.05-.08,0-.16.01-.23.02-.01,0-.03,0-.04,0-.07,0-.12-.02-.15-.06-.04-.05-.05-.12-.02-.2ZM5.36,10.8c.28-.25.65-.35,1.03-.29.6.1,1.22.13,1.81.17l.74.04c1.09.07,2.21.13,3.31.16.93.03,1.87.03,2.79.03.42,0,.84,0,1.26,0,1.29,0,2.64-.02,4-.1,1.18-.06,2.4-.13,3.61-.23.23-.02.47-.04.7-.06.48-.04.97-.09,1.45-.12.71-.05,1.44-.14,2.08-.22,1.27-.15,2.31-.28,3.27-.41.6-.08,1.21-.17,1.8-.27.27-.04.53-.08.8-.12h.07s.09-.03.14-.03c.38-.04.49,0,.53.41.05.43.09.87.13,1.29.02.2.04.41.06.61l.11,1.16c.05.52.1,1.04.15,1.55.05.49.09.98.14,1.47l.11,1.2c.04.4.07.81.11,1.21.07.76.09,1.57-.2,2.35-.71,1.88-2.06,2.99-3.99,3.29-.49.08-.99.07-1.47.07-.22,0-.45,0-.67,0-2.09.05-4.21.06-6.26.06-1.5,0-3.04,0-4.57.03-.43,0-.86.01-1.3.01-.91,0-1.84.02-2.98.04h0c-.17,0-.38,0-.61,0-.61,0-1.36-.02-2.12.01-1.13.05-2.27.05-3.38.04-.66,0-1.35,0-2.02,0-.04,0-.08,0-.12,0-.03,0-.07,0-.1,0-.36,0-.43-.08-.44-.43-.01-.51-.03-1.02-.05-1.52-.03-.89-.05-1.79-.07-2.67-.01-.54-.02-1.08-.04-1.63-.04-1.54-.09-3.28-.15-5,0-.13,0-.27-.01-.4,0-.27-.02-.54-.03-.8-.02-.37.12-.71.39-.95ZM3.63,38.6c.08-.64.17-1.28.25-1.92.11-.86.23-1.72.34-2.58.12-.93.24-1.86.36-2.79.1-.81.21-1.61.31-2.42.08-.61.16-1.21.25-1.82v-.05c.07-.46.11-.49.58-.49.64,0,1.29,0,1.93,0h.68s0-.02,0-.02h.09c.22,0,.45,0,.67,0,.48,0,.97,0,1.46,0,1.16-.04,2.34-.04,3.47-.04.99,0,2.02,0,3.02-.03,1.65-.04,3.32-.04,4.94-.04,1.48,0,3.01,0,4.51-.03.6-.01,1.21-.02,1.8-.02.82,0,1.66,0,2.49-.04,2.21-.08,4.04-.96,5.43-2.6.92-1.1,1.46-2.34,1.65-3.81.09-.74.03-1.49-.03-2.21l-.02-.22c-.07-.8-.15-1.61-.23-2.4-.03-.32-.06-.64-.09-.95l-.14-1.47c-.09-.89-.17-1.77-.26-2.66-.01-.13-.02-.27-.03-.4,0-.14-.02-.27-.03-.41-.02-.18.07-.31.25-.35.09-.02.19-.04.28-.05.06,0,.11-.02.17-.03l.82-.16c.43-.08.87-.17,1.3-.25.37-.07.7-.01.95.17.24.18.39.46.44.82.06.51.11,1.03.16,1.53.02.2.04.39.06.59.08.84.17,1.67.25,2.51l.13,1.34c.07.68.13,1.36.2,2.05.04.43.09.86.13,1.29.03.31.07.62.1.94.02.21.04.42.05.64.03.43.16.77.39,1.06.21.25.41.52.6.78.07.09.13.18.2.27.13.17.19.25.18.35-.01.11-.1.18-.26.29-1.03.78-2.06,1.55-3.09,2.33-.2.15-.36.32-.47.52-.4.73-.09,1.41.31,1.77.5.47,1.25.5,1.82.09.48-.35.95-.71,1.42-1.06.2-.15.4-.3.6-.45l.36-.27c.28-.21.55-.42.83-.62.28-.21.38-.19.59.07.54.71,1.13,1.48,1.8,2.38.19.25.15.33-.09.52-1.02.77-2.04,1.54-3.07,2.3-.36.27-.57.53-.68.86-.21.59.07,1.24.44,1.54.48.39,1.1.45,1.63.16.13-.07.25-.16.37-.25.71-.53,1.41-1.06,2.12-1.59l.72-.54s.06-.04.08-.06c.06-.04.11-.08.16-.13.09-.08.17-.12.26-.11.08,0,.16.06.22.16.07.09.14.18.21.27.05.06.09.11.14.17.49.65.99,1.3,1.48,1.95.09.12.15.21.14.31-.02.1-.1.17-.23.27-.88.67-1.77,1.33-2.66,2l-.41.31c-.27.2-.53.44-.66.79-.21.6-.02,1.27.48,1.66.5.39,1.17.41,1.69.05.39-.28.78-.57,1.16-.86.15-.12.31-.23.46-.35l.78-.58c.3-.23.6-.45.9-.68.32-.24.39-.23.63.09.57.74,1.13,1.49,1.69,2.23.12.16.2.27.18.39-.02.12-.12.2-.29.32l-.39.3c-.9.68-1.8,1.35-2.7,2.02-.33.25-.53.51-.62.82-.18.62.03,1.24.54,1.6.53.37,1.17.37,1.69,0,.39-.28.78-.58,1.16-.86.16-.12.33-.25.49-.37l.57-.43c.33-.25.66-.5.99-.74.39-.29.47-.28.76.1.13.17.26.34.39.51.33.44.67.89,1.02,1.31.99,1.17,2.19,2.17,3.55,2.98.21.13.32.19.35.3.03.11-.04.22-.17.43-.58.95-1.17,1.89-1.75,2.84-.16.26-.23.35-.4.35-.07,0-.16-.02-.29-.04h-.03c-1.27-.25-2.54-.49-3.81-.74l-5.12-.98c-1.42-.27-2.83-.54-4.25-.81-1.26-.24-2.52-.48-3.78-.72-1.25-.24-2.5-.48-3.75-.72-1.07-.21-2.15-.41-3.22-.62-1.37-.26-2.73-.53-4.1-.79-1.35-.26-2.7-.51-4.04-.77-1.35-.26-2.7-.51-4.04-.77-1.12-.21-2.24-.43-3.35-.64-.87-.17-1.74-.34-2.61-.5-2.33-.45-4.66-.89-6.99-1.34l-4.25-.81c-1.09-.21-2.18-.42-3.27-.63-.44-.09-.51-.17-.45-.62ZM2.77,47.02c.03-1.3.12-2.49.26-3.65l.17-1.44s0-.08.02-.11c.06-.31.16-.38.46-.32.28.05.56.11.83.16.31.06.63.12.94.18,1,.19,2,.38,2.99.57,1.21.23,2.42.46,3.63.69.6.11,1.19.23,1.79.35.6.12,1.2.23,1.8.35.69.13,1.38.26,2.07.39.72.13,1.43.27,2.15.41.85.16,1.7.33,2.55.49.78.15,1.55.3,2.33.45.84.16,1.67.32,2.51.48.87.17,1.74.33,2.61.5.85.16,1.71.33,2.56.49.86.17,1.73.33,2.59.5,1.06.2,2.12.4,3.18.61l3.18.6c1.61.31,3.22.61,4.83.92,1.02.2,2.04.39,3.06.59,1.14.22,2.28.44,3.42.66.9.17,1.8.34,2.7.51.77.15,1.55.29,2.32.44.78.15,1.56.3,2.34.45l1.17.23c.05,0,.1.02.15.03.54.11.98-.06,1.29-.53.22-.34.44-.69.65-1.03.08-.13.15-.25.23-.38l1.77-2.87c.21-.33.26-.35.64-.24,1.02.31,2.07.5,3.11.57.6.04,1.21.08,1.81.11.59.04,1.18.07,1.76.11.74.05,1.48.1,2.22.15.91.06,1.82.12,2.73.18.47.03.94.05,1.41.08.49.03.97.05,1.46.08.69.04,1.39.09,2.08.14.58.04,1.16.08,1.74.12.72.05,1.28.08,1.8.1,1.5.06,2.81.39,3.99,1.01,2.27,1.19,3.82,3.05,4.59,5.52.16.52.32,1.03.47,1.55.07.24.14.48.22.72v.04s.03.07.04.1c.09.34.06.4-.26.53l-.2.08c-.61.24-1.24.48-1.86.72-1.85.68-4.04,1.48-6.31,2.18-3.12.96-6.28,1.75-9.37,2.34-1.42.27-2.72.49-3.99.68-1.61.23-3.11.41-4.58.54-1.27.11-2.56.19-3.8.26l-.41.02c-.75.05-1.51.06-2.26.06-.39,0-.78,0-1.16,0-.45,0-.89,0-1.34,0h0c-.4,0-.79,0-1.19,0-.89,0-1.82.01-2.72-.02-.56-.02-1.12-.03-1.67-.03-.62,0-1.25-.02-1.88-.04-.55-.02-1.14-.03-1.84-.04-.3,0-.59-.08-.87-.15-.08-.02-.15-.04-.23-.06-1.64-.39-3.28-.79-4.93-1.18-1.07-.26-2.15-.52-3.22-.77-1.7-.41-3.4-.81-5.1-1.22l-3.84-.92c-.99-.24-1.98-.48-2.97-.72-.29-.07-.61-.11-.96-.11-.36,0-.71,0-1.07-.01-1.22-.01-2.48-.03-3.72-.07-.45-.02-.9-.02-1.34-.03-.55,0-1.12-.01-1.68-.04-.65-.03-1.31-.04-1.95-.04-.5,0-1.02,0-1.52-.02-1.1-.04-2.21-.06-3.3-.08-1.05-.02-2.13-.04-3.2-.07-1.8-.06-3.58-.5-5.3-1.32-.17-.08-.35-.17-.52-.26-.25-.12-.5-.25-.75-.36-.24-.11-.37-.28-.41-.55-.08-.53-.16-1.06-.24-1.58-.16-1-.32-2.03-.43-3.05-.22-2.03-.31-3.88-.26-5.68ZM85.42,65.64l-.37.02c-.7.04-1.15.51-1.16,1.23,0,.1,0,.21.02.31,0,.08.01.17.02.25v.46c.03.57.04,1.16.09,1.74.03.38-.07.46-.42.55-.06.01-.11.03-.17.04-.12.03-.23.06-.35.09-.11.02-.22.04-.3-.03-.08-.06-.1-.17-.1-.28,0-.13,0-.27-.01-.4,0-.09,0-.18,0-.27,0-.13,0-.26-.03-.38-.12-.67-.56-1.04-1.25-1.04h0c-.39,0-.8.02-1.18.04-.48.02-.98.05-1.48.04-.33,0-.67.02-1,.05l-.2.02c-.63.05-1.09.59-1.05,1.25.02.41.03.83.04,1.23,0,.28.02.55.03.83,0,.22-.1.35-.31.38l-.12.02c-.25.04-.51.09-.76.11-.08,0-.17,0-.25-.05-.08-.07-.09-.18-.1-.29,0-.12,0-.24-.01-.37,0-.22-.01-.44-.04-.65-.08-.76-.57-1.19-1.31-1.17-.53,0-1.07.03-1.66.08-.48.04-.97.04-1.44.05-.17,0-.34,0-.51,0-.14,0-.26.02-.36.05-.58.16-.93.66-.87,1.24.03.36.03.73.04,1.08,0,.14,0,.28,0,.42,0,.38-.09.44-.45.46-.17,0-.34.02-.5.01-.32,0-.4-.08-.41-.39-.02-.44-.05-.91-.06-1.38-.01-.44-.15-.8-.41-1.03-.26-.23-.64-.34-1.09-.3-.99.08-2.01.12-3.15.12-.18,0-.38,0-.56.04-.61.13-.96.56-.96,1.17v.15c0,.4,0,.82.04,1.22.01.12.01.25,0,.37,0,.17-.12.29-.29.29-.41,0-.85,0-1.28,0-.26,0-.27-.24-.28-.37l-.06-1.28s0-.08,0-.12c0-.05,0-.11,0-.16-.05-.67-.53-1.12-1.19-1.12h0c-.58,0-1.18.03-1.75.05-.63.03-1.29.06-1.94.05-.1,0-.21.02-.33.05-.61.14-.95.56-.95,1.18v.06c0,.4,0,.81.05,1.2.02.16.02.27-.05.36-.07.08-.19.1-.36.1-.15,0-.31,0-.47,0s-.34,0-.53,0c-.36,0-.42-.07-.43-.44,0-.14,0-.28,0-.41,0-.11,0-.22,0-.33-.01-.77-.36-1.19-1.13-1.35-2.13-.44-4.27-.89-6.4-1.33l-4.74-.99c-1.75-.36-3.51-.73-5.26-1.1-1.33-.28-2.66-.56-4-.84l-.55-.12c-.64-.13-1.18.13-1.41.69-.07.17-.08.36-.08.56v4.12s0,.09,0,.09c0,.07,0,.13,0,.2,0,.17-.07.3-.18.37-.11.07-.26.08-.42.02-.11-.04-.17-.12-.18-.23,0-.11-.01-.21-.01-.33,0-.72,0-1.44,0-2.17,0-.28-.04-.5-.14-.68-.21-.42-.52-.63-.96-.63h-.87c-1.03,0-2.09,0-3.14,0-.6,0-1.05.45-1.06,1.07,0,.55,0,1.12,0,1.66,0,.24,0,.48,0,.71,0,.57-.05.62-.62.62h-.13c-.16,0-.32,0-.48,0-.33-.01-.41-.1-.42-.43,0-.59,0-1.18,0-1.78v-.29c0-.23-.01-.42-.04-.59-.09-.6-.53-.99-1.12-.99-1.24,0-2.54,0-3.87,0-.62,0-1.01.33-1.14.94-.04.18-.04.36-.04.51v.32c0,.6,0,1.21,0,1.81,0,.4-.08.48-.47.48-.24,0-.5,0-.75,0-.31-.01-.42-.12-.42-.43,0-.39,0-.77,0-1.16,0-.18,0-.37,0-.55,0-.08,0-.16,0-.25,0-.21,0-.43,0-.64-.03-.59-.48-1.03-1.06-1.04-1.2,0-2.42,0-3.6,0h-.41c-.46,0-.78.23-.98.69-.08.18-.11.37-.11.62v.11c0,.5,0,1.01,0,1.52,0,.14,0,.24-.08.3-.07.06-.18.05-.32.03-.59-.09-1.18-.25-1.74-.4-.15-.04-.29-.08-.44-.12-.18-.05-.28-.18-.28-.37v-.12c0-.05,0-.11,0-.16v-4.2c0-.67,0-1.34,0-2.01,0-1.22.24-2.41.7-3.53.08-.2.14-.33.25-.37.11-.04.23.01.41.11,1.04.53,2.01.93,2.97,1.21,1.05.31,2.15.53,3.36.65.5.05,1.01.06,1.5.07h.09c.43,0,.85.01,1.28.02,1.06.01,2.15.03,3.23.07.7.03,1.41.04,2.1.04.53,0,1.08,0,1.62.02,2.24.06,4.62.13,6.99.15.28,0,.57.01.85.02.27,0,.54.02.81.02.37,0,.73.1,1.08.19.1.03.2.05.3.08,1.7.41,3.39.82,5.09,1.22,1.06.26,2.13.51,3.19.77,1.39.33,2.77.66,4.16,1l2.98.71c1.52.36,3.04.73,4.56,1.1.21.05.42.06.61.06.46,0,.92.01,1.39.02,1.11.01,2.25.02,3.37.07.69.03,1.4.03,2.08.03.71,0,1.45,0,2.17.04,1.18.05,2.37.02,3.53-.02.28,0,.55-.02.83-.02,1.27-.03,2.6-.11,3.96-.23l.68-.06c.61-.05,1.24-.11,1.86-.18,2.19-.23,4.43-.55,6.66-.96,2.84-.52,5.71-1.19,8.53-1.98,2.35-.66,4.79-1.47,7.68-2.53.5-.19,1.01-.38,1.51-.57.24-.09.48-.18.72-.27.04-.02.09-.03.14-.05.2-.07.32-.11.42-.05.1.06.13.18.17.37.04.21.08.43.12.65l.46,2.68c.06.37.05.41-.27.6-1.22.74-2.59,1.42-4.19,2.11-.36.15-.72.3-1.08.45l-.43.17c-.07.03-.14.05-.21.07-.15.05-.26.08-.34.02-.08-.06-.09-.16-.1-.31-.02-.34-.04-.69-.06-1.03-.04-.73-.48-1.15-1.22-1.15-1.14,0-2.3.06-3.42.12Z"/>
</svg>