<?xml version="1.0" encoding="UTF-8"?>
<svg id="Layer_1" data-name="Layer 1" xmlns="http://www.w3.org/2000/svg" viewBox="0 0 102.05 42.73">
  <defs>
    <style>
      .cls-1 {
        fill: #e93538;
        stroke-width: 0px;
      }
    </style>
  </defs>
  <path class="cls-1" d="M14.81,42.06c4.23,0,8.45,0,12.68,0,.56,0,1.03-.14,1.33-.66.14-.25.16-.52.16-.79,0-.81,0-1.61-.01-2.42,0-.28.08-.35.36-.3,1.74.34,3.48.68,5.22,1,1.99.37,3.97.75,5.97,1.07,1.33.21,2.66.49,3.99.69,1.83.28,3.66.53,5.49.79,1.62.23,3.24.41,4.87.57,2.01.2,4.02.34,6.04.49,2.37.17,4.74.2,7.11.22,3.17.02,6.33-.14,9.48-.5,2.82-.32,5.62-.79,8.38-1.45,3.99-.95,7.85-2.27,11.61-3.88,1.02-.44,2.05-.87,3.04-1.37,1.61-.79,2.01-2.86.83-4.21-.17-.2-.23-.38-.17-.64.29-1.22.37-2.44.06-3.68-.35-1.38-1.11-2.47-2.24-3.32-1.29-.97-2.77-1.44-4.32-1.72-2.59-.48-5.21-.72-7.84-.92-2.23-.16-4.45-.42-6.68-.56-1.67-.11-3.32-.35-4.93-.81-1.34-.38-2.66-.86-3.95-1.39-2.74-1.12-5.36-2.46-7.92-3.94-1.85-1.07-3.59-2.3-5.31-3.57-1.42-1.05-2.85-2.07-4.27-3.11-1.97-1.44-3.93-2.89-5.9-4.33-1.31-.96-2.6-1.94-3.94-2.86-1.07-.73-2.5-.62-3.44.32-1.06,1.05-2.06,2.15-3.13,3.18-2.78,2.66-5.67,5.18-9.04,7.07-1.31.74-2.68,1.34-4.18,1.58-1.21.19-2.42.11-3.63-.06-2.73-.38-5.33-1.18-7.89-2.18-2.36-.92-4.66-1.97-6.89-3.18-.11-.06-.23-.11-.34-.16-.67-.32-1.26-.17-1.65.45-.75,1.2-1.38,2.45-1.93,3.75-.56,1.32-1,2.68-1.33,4.07C.02,17.34-.08,19.38.06,21.45c.11,1.53.27,3.05.55,4.56.16.88.37,1.75.63,2.61.08.25.08.43-.18.61-.33.23-.43.61-.43,1,0,3.51,0,7.02,0,10.53,0,.86.51,1.31,1.44,1.31,3.31,0,6.61,0,9.92,0,.94,0,1.89,0,2.83,0ZM51.49,19.57c.01.64-.2,1.43-.5,2.19-.11.27-.27.37-.56.28-.29-.09-.59-.16-.89-.22-1.61-.32-3.23-.63-4.87-.81-2.65-.29-5.3-.33-7.93.17-2.42.46-4.66,1.4-6.66,2.82-2.26,1.6-4.01,3.64-5.12,6.2-.09.2-.22.27-.43.24-.66-.09-1.33-.17-1.99-.26-.43-.06-.45-.1-.31-.52,1.09-3.3.63-6.4-1.27-9.27-1.25-1.89-3.01-3.2-5.18-3.92-1.86-.62-3.74-1.19-5.62-1.78-.41-.13-.72-.38-.99-.7-.6-.69-.56-1.47-.33-2.29.06-.23.16-.29.38-.2.69.29,1.38.58,2.08.85,1.63.66,3.3,1.23,5,1.7,1.83.5,3.69.89,5.59.99,1.01.05,2.02.04,3.02-.17,1.32-.28,2.56-.78,3.77-1.37,1.97-.97,3.75-2.21,5.47-3.56,1.47-1.16,2.9-2.37,4.24-3.68.18-.17.32-.17.5-.01,1.05.91,2.09,1.81,3.14,2.72,1.38,1.18,2.76,2.37,4.14,3.54,1.25,1.07,2.57,2.06,3.75,3.21,1.02.99,1.59,2.2,1.58,3.84ZM68.91,36.8c-1.88-.04-3.91-.1-5.94-.25-2.73-.19-5.45-.5-8.16-.87-2.36-.32-4.72-.7-7.06-1.12-.17-.03-.43.02-.48-.17-.04-.17.16-.31.29-.43,1.17-1.14,2.53-1.97,4.04-2.61,2.54-1.08,5.2-1.5,7.92-1.69,1.42-.1,2.84-.08,4.26,0,1.68.1,3.35.26,5.03.32,2.22.08,4.43-.01,6.61-.47,1.71-.36,3.33-.91,4.73-1.99,1.3-1.01,2.11-2.33,2.3-3.99.05-.4.08-.44.48-.4,2.29.28,4.59.36,6.89.58,1.98.19,3.96.33,5.88.91.92.27,1.76.69,2.42,1.4,1.13,1.22,1.2,2.66.8,4.18-.04.15-.15.21-.29.26-.44.16-.87.33-1.3.51-1.21.52-2.44.98-3.68,1.42-2.17.77-4.37,1.46-6.6,2.06-2.16.58-4.35,1.05-6.55,1.41-1.67.28-3.34.48-5.03.62-2.13.17-4.26.27-6.54.3ZM44.27,33.95c-.09-.01-.18-.02-.27-.04-1.74-.33-3.48-.65-5.22-.98-1.48-.28-2.96-.6-4.44-.88-2.24-.41-4.48-.86-6.74-1.18-.18-.03-.25-.09-.19-.27.04-.11.07-.22.12-.32.42-.8.95-1.53,1.54-2.2,1.95-2.24,4.41-3.66,7.25-4.41,2.14-.57,4.32-.65,6.52-.5,3.2.22,6.32.84,9.39,1.75,1,.3,1.99.64,2.98.95.4.12.75.04,1.08-.23.24-.2.33-.48.44-.75,1.18-2.95,2.37-5.9,3.56-8.85.23-.57.25-.57.8-.27.85.46,1.7.92,2.55,1.36,2.75,1.43,5.49,2.87,8.42,3.94,1.49.54,3,.99,4.54,1.32,1.03.22,2.08.33,3.13.47.21.03.37.08.34.35-.08.74-.37,1.38-.87,1.92-.94,1.03-2.16,1.56-3.47,1.92-1.07.29-2.15.44-3.25.51-1.69.12-3.38.12-5.07,0-1.56-.11-3.12-.27-4.69-.3-1.41-.03-2.81.02-4.22.11-1.55.1-3.06.36-4.56.71-1.31.3-2.58.73-3.8,1.3-2.16,1.01-4.08,2.33-5.46,4.33-.1.15-.22.26-.42.24ZM14.81,39.67c-3.75,0-7.5,0-11.25,0-.08,0-.16,0-.24,0-.22,0-.32-.09-.32-.33,0-2.57,0-5.13,0-7.7,0-.25.11-.35.35-.33,1.25.12,2.5.05,3.74.1,2.2.08,4.4.21,6.6.34,2.57.15,5.14.39,7.7.67,3.34.36,6.66.85,9.97,1.48,2.9.55,5.8,1.1,8.7,1.66,3.32.64,6.65,1.24,9.99,1.78,3.59.58,7.18,1.07,10.8,1.4,2.04.19,4.07.31,6.12.37,2.82.08,5.63,0,8.44-.24,2.43-.21,4.85-.54,7.25-.99,3.21-.61,6.35-1.46,9.45-2.47,2.29-.75,4.54-1.61,6.76-2.52.39-.16.67-.12.76.09.1.23-.05.41-.47.6-1.7.78-3.42,1.53-5.17,2.2-2.97,1.13-6,2.09-9.1,2.81-1.73.4-3.46.73-5.21.99-1.11.17-2.23.29-3.34.4-2.1.2-4.21.34-6.32.38-3.77.07-7.54-.06-11.3-.35-1.69-.13-3.37-.28-5.05-.47-2.44-.27-4.87-.6-7.29-.96-2.38-.35-4.75-.78-7.12-1.19-3.7-.65-7.38-1.38-11.07-2.1-.97-.19-1.59.3-1.6,1.28,0,.85,0,1.7,0,2.56,0,.57,0,.57-.57.57-3.74,0-7.47,0-11.21,0ZM2.36,19.3c.02-.35.01-.96.09-1.55.22-1.67.61-3.3,1.24-4.87.4-1,.84-1.99,1.36-2.93.13-.24.28-.3.52-.16.24.14.47.28.73.37.37.13.4.36.31.7-.19.72-.34,1.45-.28,2.21.14,1.69,1.38,3.32,2.99,3.84,1.79.57,3.58,1.1,5.36,1.67,2.17.7,3.84,2.05,4.86,4.11,1.12,2.24,1.13,4.54.19,6.86-.09.23-.22.3-.47.28-.46-.05-.92-.12-1.38-.16-1.55-.12-3.1-.19-4.65-.31-2.32-.19-4.65-.26-6.97-.33-.7-.02-1.41-.05-2.11-.06-.24,0-.38-.1-.45-.33-.08-.28-.18-.56-.26-.85-.74-2.7-1.05-5.45-1.09-8.49ZM54.19,13.26c0,.57.27.97.74,1.13.52.18,1.03.02,1.36-.42.18-.25.36-.49.54-.74.12-.17.26-.21.43-.08.3.22.59.46.91.66.29.18.32.37.19.68-.5,1.2-.98,2.42-1.46,3.63-.63,1.58-1.27,3.16-1.89,4.75-.11.29-.27.4-.57.29-.29-.1-.58-.21-.87-.28-.33-.08-.4-.22-.27-.56.58-1.47.75-2.99.42-4.54-.37-1.7-1.32-3.05-2.61-4.17-1.05-.91-2.14-1.79-3.2-2.7-1.51-1.29-3.02-2.58-4.52-3.88-.93-.8-1.86-1.6-2.79-2.4-.15-.13-.26-.25-.07-.44.51-.53,1.02-1.07,1.53-1.6.25-.25.47-.25.75-.04.48.36.96.72,1.45,1.07.21.14.27.26.11.49-.23.31-.44.64-.64.97-.38.64-.25,1.32.3,1.68.54.35,1.22.21,1.65-.36.22-.29.42-.59.61-.9.13-.21.25-.21.44-.07.35.27.71.53,1.07.78.2.14.21.29.08.49-.24.34-.5.68-.7,1.05-.14.26-.18.54-.1.82.13.45.42.75.89.85.48.1.88-.04,1.18-.42.24-.3.45-.63.66-.95.12-.18.23-.21.41-.06.34.28.71.53,1.07.78.22.15.25.29.09.5-.2.27-.4.55-.58.84-.34.57-.22,1.3.26,1.62.6.4,1.26.27,1.7-.33.05-.07.11-.15.16-.22.58-.79.59-.8,1.37-.2.91.71.87.38.21,1.4-.18.28-.36.55-.34.88Z"/>
</svg>