<?xml version="1.0" encoding="UTF-8"?>
<svg id="Layer_1" data-name="Layer 1" xmlns="http://www.w3.org/2000/svg" viewBox="0 0 99.21 46.08">
  <defs>
    <style>
      .cls-1 {
        fill: #e93538;
        stroke-width: 0px;
      }
    </style>
  </defs>
  <path class="cls-1" d="M75.96,45.44c.9-.11,1.88-.23,2.87-.32.7-.06,1.41-.17,2.1-.28.24-.04.48-.07.71-.11l.23-.03c.51-.07,1.03-.15,1.53-.26.41-.09.82-.16,1.22-.23.53-.1,1.09-.2,1.62-.32.43-.1.87-.19,1.3-.27.37-.07.76-.14,1.14-.23.92-.21,1.85-.45,2.74-.67l.57-.15c.84-.21,1.71-.52,2.72-.97.97-.43,1.9-.95,2.87-1.59.59-.39,1.02-.76,1.24-1.31.3-.75.43-1.48.38-2.16-.01-.21-.03-.43-.05-.65-.02-.26-.04-.52-.06-.78-.06-.98-.24-1.96-.54-2.92-.29-.94-.66-1.91-1.19-3.16-.74-1.74-1.68-2.92-2.94-3.72-.8-.51-1.74-.87-2.94-1.12-.4-.08-.83-.14-1.24-.19-.26-.03-.52-.07-.77-.11-.56-.09-1.12-.12-1.72-.15-.66-.04-1.34-.07-2.02-.19-.15-.03-.3-.06-.46-.08-.45-.08-.92-.17-1.39-.24-.58-.08-1.14-.24-1.69-.39h-.03c-.66-.19-1.52-.44-2.39-.73-.57-.19-1.13-.44-1.66-.67-.25-.11-.5-.22-.76-.33l-.05-.02c-.7-.29-.81-.45-.82-1.22,0-.51-.43-.94-.96-.96-.4-.02-.68.09-.92.37-.4.46-.83.34-1,.27-.36-.15-.72-.31-1.08-.46-.45-.2-.91-.39-1.36-.59-.24-.1-.5-.32-.42-.81.11-.69-.1-1.08-.73-1.35-.37-.16-.91.05-1.23.47-.26.34-.62.43-1.01.26l-.46-.2c-.64-.27-1.28-.55-1.92-.82-.4-.17-.55-.51-.4-.91.15-.42.05-.77-.32-1.1-.35-.32-.69-.39-1.08-.23-.23.09-.4.24-.56.46-.35.49-.78.43-1.07.29-.61-.28-1.24-.55-1.85-.81l-.42-.18c-.25-.11-.41-.26-.48-.46-.07-.2-.04-.42.08-.64.08-.14.06-.35-.05-.58-.17-.36-.49-.61-.69-.65-.53-.1-.93.05-1.28.48-.12.14-.47.57-1.04.29-.57-.28-1.16-.55-1.73-.82l-.55-.25c-.24-.11-.4-.27-.47-.47-.07-.2-.05-.41.07-.63.05-.1.04-.13.04-.13-.11-.69-.58-1.11-1.19-1.1-.28,0-.49.16-.77.43-.35.33-.76.35-1.12.05-1.53-1.32-2.94-2.72-4.2-4.17-.31-.36-.63-.74-.93-1.1-.77-.93-1.57-1.89-2.46-2.73-.94-.89-1.96-1.22-3.14-1.02-.46.08-.9.26-1.32.53-1.28.83-2.21,1.51-3.02,2.23-.11.1-.23.2-.34.3-.81.71-1.58,1.38-1.97,2.35-.31.78-.43,1.49-.37,2.18.04.39-.1.7-.42.95l-.33.27c-1.15.93-2.34,1.9-3.64,2.7-1.03.63-2,.96-2.96,1.02-1.08.06-2.23.08-3.4-.18-1.41-.31-2.78-.64-4.09-1.15-1.64-.63-2.9-1.81-3.73-3.49-.07-.15-.14-.29-.21-.44-.21-.46-.41-.89-.74-1.23-.75-.78-1.68-1.24-2.91-1.45-1.04-.17-2.09-.05-3.01.05-.32.04-.66.13-1.03.28-.77.32-1.31.93-1.75,1.97-.31.72-.51,1.47-.72,2.26l-.04.15c-.08.31-.16.62-.24.94-.16.64-.33,1.3-.53,1.94l-.1.32c-.22.71-.44,1.45-.69,2.16-.08.23-.16.46-.24.69-.28.79-.57,1.6-.76,2.42l-.05.21c-.07.29-.13.58-.23.88-.13.39-.2.79-.28,1.22l-.03.18c-.07.38-.13.78-.18,1.16-.05.33-.1.66-.15.98-.08.45-.1.9-.13,1.38-.03.54-.06,1.09-.17,1.65-.03.15,0,.34.04.54.03.16.06.32.07.49.04.86.12,1.64.23,2.39.12.77.32,1.57.61,2.51l.02.06c.16.5.34,1.07.12,1.76-.15.47-.13,1.03.06,1.6.1.32.22.68.29,1.07.28,1.55.29,2.85.05,4.09-.15.76-.06,1.42.27,1.97.71,1.18,1.91,1.58,3.18,1.92.44.12.89.16,1.37.21.32.03.65.06.98.12.48.08.97.09,1.49.11.38,0,.78.02,1.18.06,1.93.2,3.9.27,5.81.34.33.01.66.02.98.04.62.02,1.25.06,1.86.09,1.12.06,2.28.12,3.41.13,1.69,0,3.39.07,5.04.14.71.03,1.41.06,2.12.08.79.03,1.59.02,2.37.02.99,0,2.02,0,3.04.05,1.26.07,2.75.14,4.25.14,2.27-.01,4.57.06,6.8.13.87.03,1.74.05,2.61.08.62.02,1.25.03,1.87.04,1.67.03,3.39.07,5.09.18.8.05,1.63.04,2.43.03.33,0,.67,0,1,0,.88,0,1.78.03,2.67.17.75.11,1.52.08,2.33.05.36-.01.74-.03,1.11-.03.33,0,.65,0,.98,0,1.27,0,2.59,0,3.87-.18.42-.06.84-.05,1.24-.04.4.01.77.02,1.14-.04.74-.12,1.48-.16,2.2-.2.58-.03,1.18-.06,1.76-.14ZM84.59,25.52c.98.2,1.97.3,2.94.39.45.04.92.09,1.38.15l.39.05c.57.07,1.16.14,1.74.24,2,.36,3.38,1.4,4.1,3.09v.02c.47,1.09.39,1.32-.62,1.93h-.02c-1.63,1-3.41,1.78-5.43,2.4-.22.07-.4.1-.55.1-.39,0-.61-.23-.79-.77-.54-1.58-1.28-3.15-2.2-4.68-.4-.67-.77-1.26-1.2-1.83l-.03-.04c-.08-.1-.22-.27-.25-.56l-.07-.61.6.12ZM35.43,5.91c.48-.64,1.08-1.14,1.66-1.62l.12-.1c.7-.58,1.54-1.24,2.52-1.75.69-.36,1.18-.29,1.73.27.88.87,1.69,1.82,2.47,2.73.44.52.91,1.06,1.37,1.57.21.23.42.46.66.71l1.11,1.18-1.1-.06c-.37-.02-.63-.13-.84-.22-.06-.02-.11-.05-.17-.07-.67-.24-1.27-.4-1.84-.5-1.62-.26-2.87-.07-3.94.63-.63.41-1.28.84-1.92,1.27-.07.05-.25.17-.49.17-.04,0-.09,0-.13-.01-.29-.06-.44-.3-.49-.38-.28-.45-.52-.82-.75-1.15-.58-.84-.58-1.86.02-2.66ZM8.01,7.23c.03-.14.17-.48.68-.43,0,0,.02,0,.02,0,.53-.05,1.33-.09,2.12.23.53.21.92.59,1.14,1.12.86,2.05,2.33,3.66,4.37,4.79.72.4,1.51.65,2.48.91.25.07.51.14.76.21.42.12.85.25,1.28.34.67.15,1.23.27,1.81.33l.18.02c.71.08,1.37.15,2.05.11,1.47-.1,2.8-.46,3.94-1.07,1.14-.61,2.3-1.4,3.54-2.42.27-.22.56-.45.83-.69.2-.17.4-.24.61-.2.14.03.34.11.49.39l.02.03s.04.08.05.09c.19.2.28.42.27.64-.01.23-.13.44-.36.64-.35.3-.69.63-1.03.94-.66.62-1.35,1.26-2.11,1.81-.95.69-2.24,1.52-3.8,1.94-.75.2-1.62.41-2.52.41-.04,0-.08,0-.11,0-.67,0-1.32-.12-1.94-.23-.25-.04-.5-.09-.74-.13-.68-.1-1.34-.25-1.99-.4-.18-.04-.36-.08-.54-.12-.63-.14-1.25-.33-1.85-.51h-.03c-.73-.23-1.46-.49-2.17-.74-.27-.1-.55-.19-.82-.29-1.86-.64-3.18-1.63-4.03-3.01-.35-.56-.62-1.18-.81-1.83-.25-.85-.73-1.6-1.44-2.24,0,0,0,0-.02-.01-.33-.21-.36-.46-.32-.64ZM3.58,17.64s0,0,0,0c.18-.66.41-1.3.64-1.93.16-.44.32-.9.47-1.35.23-.74.5-1.62.73-2.52.06-.23.12-.46.18-.69.1-.4.21-.8.3-1.2.03-.13.11-.46.43-.56.33-.1.58.14.7.24.45.41.61.94.76,1.41l.03.08c.33,1.05.87,2.04,1.61,2.94.88,1.07,1.84,1.84,2.94,2.34,1.04.47,2.07.87,3.08,1.2l.66.21c.6.19,1.22.4,1.83.58.27.08.55.15.84.21.12.03.23.05.35.08h0c.34.04.47.24.52.4.05.16.05.41-.23.63h-.02c-.87.82-1.91,1.73-3.23,2.19-.31.11-.64.15-.9.18-.1.01-.19.02-.28.04h-.05s-.05,0-.05,0c-1.45-.07-2.45-.64-3.05-1.75-.88-1.6-2.15-2.46-3.91-2.65-1.13-.12-2.25.08-3.55.62-.33.2-.56.09-.68,0-.08-.06-.33-.3-.14-.7ZM3.03,30.66c-.54-2.07-.79-3.94-.74-5.72.02-.89.13-1.78.24-2.64l.06-.47c.05-.42.3-.69.71-.78.47-.1.92-.28,1.39-.47.44-.18.89-.36,1.37-.47,1.07-.26,2.19-.4,3.2.42.34.27.53.62.7.93.08.14.15.27.24.39.73,1.05,1.62,1.75,2.71,2.14.74.26,1.53.48,2.36.36,1.41-.21,2.59-.64,3.61-1.3,1.23-.8,2.26-1.9,3.26-2.96.29-.31.64-.59,1.24-.56h.29c.67.05,1.29.08,1.93.03.87-.06,1.76-.24,2.8-.57,1.43-.45,2.83-1.22,4.42-2.42.75-.57,1.45-1.22,2.1-1.84,1.68-1.61,3.53-3.02,5.51-4.19.63-.37,1.34-.49,2.1-.34,1.46.28,2.81.85,4.12,1.4l.09.04c.25.11.51.19.78.29.12.04.45.15.53.48.05.21-.02.43-.21.64-.28.3-.37.69-.25,1.05.14.41.52.7,1.01.78.23.04.47-.05.66-.23.34-.32.68-.67,1.01-1.01l.02-.02c.27-.28.59-.34.94-.2.75.3,1.53.59,2.28.86l.23.09c.1.04.4.15.49.46.06.21,0,.42-.18.64-.31.38-.38.66-.24,1.01.2.5.53.75,1.05.79.25.02.5-.08.7-.28.12-.13.24-.26.37-.4.1-.12.21-.23.31-.34.56-.59.76-.64,1.51-.34l.06.02c.71.28,1.44.57,2.17.83.09.03.37.13.46.42.09.28-.06.5-.16.65-.44.64-.35,1.23.26,1.66.39.28.95.22,1.29-.13.26-.26.49-.57.71-.87.29-.39.66-.49,1.12-.3.82.33,1.68.66,2.53.97.09.03.38.14.47.43.09.29-.08.53-.14.62-.2.28-.29.52-.3.79-.02.43.33.85.66,1,.38.17.88.07,1.2-.24.17-.16.3-.37.44-.6.05-.08.1-.16.16-.24.27-.4.68-.55,1.09-.38l.3.12c.72.28,1.46.56,2.18.86.25.1.51.21.6.49.09.28-.05.51-.2.75-.46.76-.08,1.26.33,1.55.42.3,1.09.18,1.41-.24.14-.19.27-.41.4-.64l.02-.03c.27-.49.72-.64,1.23-.42.44.19.89.38,1.33.57.71.3,1.43.61,2.15.93.4.18.66.49.9.77.06.07.12.15.19.21,1.68,1.83,3.09,3.92,4.19,6.22.25.51.46,1.04.66,1.55.09.22.18.44.27.66.1.23.06.42.01.53-.11.26-.36.36-.45.39-.35.14-.7.19-1.04.25-.14.02-.29.05-.43.08-.96.2-1.96.36-2.98.47-1.44.16-2.91.28-4.33.39-.55.04-1.1.09-1.64.14-1.09.09-2.18.11-3.23.13-1.06.02-2.06.04-3.04.12h-.04s-.38,0-.38,0c-.3,0-.55,0-.8,0-.04,0-.08,0-.12,0-.24,0-.38-.12-.46-.23-.07-.1-.2-.36.04-.67l.65-1.02c.43-.68.86-1.35,1.29-2.03.24-.38.48-.75.72-1.13.58-.91,1.18-1.84,1.75-2.78.18-.3.22-.62.12-.93-.12-.34-.41-.62-.8-.76-.68-.25-1.36-.51-2.02-.77-.41-.16-.81-.32-1.22-.48-.14-.05-.29-.11-.43-.17-.45-.18-.88-.35-1.32-.46-.35-.08-.68.06-.92.39-.57.8-1.14,1.64-1.68,2.45l-.25.37c-.52.77-1.03,1.55-1.55,2.32-.42.63-.84,1.27-1.27,1.9-.28.42-.56.83-.84,1.25-.39.57-.77,1.14-1.15,1.72-.08.12-.31.47-.81.39l-.31-.05c-.61-.11-1.24-.22-1.86-.31-.13-.02-.46-.07-.59-.37-.13-.3.07-.57.15-.69,1.58-2.17,3.03-4.18,4.43-6.14.63-.88,1.27-1.79,1.88-2.67l.62-.88c.22-.31.17-.63.12-.8-.1-.33-.34-.61-.64-.73-1.81-.73-3.59-1.43-5.4-2.07-.42-.15-.87,0-1.16.4-.72.99-1.43,1.98-2.14,2.96l-1.09,1.51c-1.47,2.04-2.94,4.09-4.41,6.13-.2.28-.4.56-.59.84-.12.17-.24.34-.36.51-.25.35-.56.51-.93.47-.23-.03-.46-.05-.69-.07-.61-.06-1.24-.13-1.86-.21-.32-.04-.45-.21-.51-.35-.12-.3.07-.54.15-.65l.02-.03c.27-.37.54-.73.81-1.09.24-.32.48-.64.72-.96.51-.69,1.02-1.38,1.53-2.07.69-.93,1.37-1.85,2.06-2.78.33-.45.67-.89,1-1.34.6-.79,1.21-1.61,1.8-2.42.11-.16.23-.31.35-.45.27-.33.52-.65.66-1.01.23-.58.05-1.05-.51-1.38-.27-.16-.57-.27-.9-.38-.16-.06-.33-.12-.5-.19-.48-.19-.97-.38-1.45-.56-.56-.21-1.15-.43-1.72-.67-.92-.38-1.28-.29-1.86.47-.66.86-1.31,1.72-1.97,2.58-.74.97-1.48,1.94-2.22,2.91-.6.79-1.2,1.59-1.8,2.39-.64.84-1.27,1.69-1.91,2.53-.51.67-1.03,1.35-1.54,2.02-.54.7-1.07,1.4-1.61,2.1-.32.42-.7.45-.96.41-.65-.11-1.31-.12-2.01-.13-.56,0-1.14-.01-1.71-.08-1.32-.15-2.67-.15-3.98-.14-.4,0-.8,0-1.2,0-1.33-.01-2.68-.06-3.98-.12-1.27-.05-2.58-.1-3.87-.11-1.56-.02-3.14-.11-4.67-.19-.5-.03-1.01-.06-1.51-.08-.61-.03-1.21-.06-1.82-.09-1.05-.05-2.13-.1-3.19-.17-.7-.05-.85-.62-.92-.89ZM65.43,33.49l-.29.46c-.09.14-.18.28-.27.42-.26.4-.54.82-.77,1.24-.24.42-.58.64-1.04.64-.07,0-.13,0-.2-.01-.03,0-.09,0-.16,0-.05,0-.11,0-.18,0-.29.02-.6-.02-.94-.06-.07,0-.14-.02-.22-.03-.28-.03-.64-.07-.78-.39-.14-.31.05-.61.2-.83.33-.5.67-1,1.01-1.5.28-.41.55-.82.83-1.23.32-.48.64-.96.96-1.43.53-.8,1.08-1.63,1.63-2.44.06-.1.12-.18.16-.25.37-.56.57-.68,1.24-.42.09.04.2.08.33.13.14.05.28.1.42.15.16.06.31.11.47.17.1.03.39.14.49.43.07.2.03.41-.12.63-.93,1.43-1.87,2.89-2.77,4.31ZM51.92,34.16c-.11.16-.4.57-.94.57-.06,0-.12,0-.19-.02h-.03c-.58-.14-1.16-.21-1.78-.27h-.1c-.36-.05-.51-.23-.57-.37-.09-.21-.05-.44.13-.68.43-.59.86-1.19,1.28-1.79.27-.37.53-.75.8-1.12.79-1.11,1.59-2.21,2.38-3.31l1.49-2.07c.29-.41.58-.81.87-1.22.3-.43.66-.36.85-.29l.39.16c.49.2.99.4,1.49.59.09.03.35.13.43.41.08.27-.08.5-.15.59-1.04,1.42-1.87,2.57-2.63,3.63-1.09,1.52-2.38,3.33-3.7,5.19ZM41.52,29.44c-.38.51-.76,1.03-1.14,1.54-.44.59-.88,1.18-1.32,1.78-.26.36-.61.41-.83.41-.06,0-.11,0-.15,0h-.01c-.21-.03-.42-.05-.64-.08-.42-.06-.81-.11-1.21-.13-.35-.01-.49-.2-.54-.31-.09-.2-.05-.42.12-.64.95-1.24,1.9-2.49,2.84-3.73l1.88-2.48c1.42-1.87,2.84-3.75,4.27-5.62.05-.06.08-.11.11-.16.36-.52.66-.5,1.26-.25.37.16.74.31,1.11.44.1.03.39.13.48.42.09.29-.09.53-.16.63-.8,1.06-1.65,2.21-2.61,3.51-.57.77-1.13,1.54-1.7,2.31-.58.79-1.16,1.58-1.75,2.37ZM72.48,43.5c-2.17.19-4.36.18-6.48.18-.62,0-1.24,0-1.86,0h0c-.57,0-1.15,0-1.72.01-.57,0-1.15.01-1.73.01-.72,0-1.44,0-2.15-.04-1.51-.06-3.04-.09-4.53-.12-1.3-.03-2.64-.06-3.95-.1-1.25-.04-2.52-.07-3.75-.1-1.24-.03-2.52-.06-3.79-.1-2.99-.1-6.03-.15-8.97-.18-.66,0-1.33-.02-1.99-.03-1.22-.02-2.46-.06-3.66-.11-1.21-.04-2.46-.09-3.7-.11-.94-.01-1.9-.06-2.83-.1-.88-.04-1.79-.09-2.68-.1-1.67-.03-3.37-.12-5-.22-.44-.02-.88-.05-1.32-.07-.28-.02-.56-.03-.84-.04-1.37-.07-2.79-.14-4.18-.31-.63-.07-1.26-.16-1.95-.27-.37-.06-.73-.2-1.04-.32-.51-.21-.75-.67-.64-1.23.23-1.21.18-2.45.09-3.62-.05-.62-.15-1.13-.3-1.57-.07-.2-.21-.61.02-.92.24-.32.66-.29.87-.28.57.03,1.13.06,1.7.1.9.06,1.83.11,2.74.14.64.02,1.28.06,1.9.09.44.03.88.05,1.33.07.97.04,1.95.07,2.9.1,1.15.04,2.34.07,3.51.13.82.04,1.67.04,2.47.04.45,0,.89,0,1.33,0,1.41.02,2.85.08,4.23.15.83.04,1.69.08,2.54.1,2.04.07,4.16.21,6.46.43.42.04.85.08,1.27.11.76.06,1.55.13,2.33.23.96.12,2.09.25,3.25.34.8.06,1.6.18,2.29.28.51.08,1.02.14,1.53.2.37.04.74.09,1.1.14l.37.05c.59.08,1.2.16,1.8.28.31.06.63.1.96.14.27.03.55.07.83.11l.34.06c.87.15,1.76.31,2.65.44.47.07.94.14,1.4.22.91.15,1.85.3,2.77.38.37.03.73.07,1.1.11.67.07,1.35.14,2.03.19,2.76.21,5.43.26,7.94.16l.93-.04c1.8-.07,3.66-.15,5.49-.31.24-.02.49-.04.73-.07.88-.08,1.8-.16,2.7-.21.69-.03,1.4-.14,2.08-.24.18-.03.37-.05.55-.08.46-.07.94-.15,1.39-.23.26-.04.52-.09.77-.13.29-.05.57-.11.87-.18.11-.03.23-.05.34-.08,1.21-.26,2.64-.59,4.02-1.03,2.06-.66,4.25-1.43,6.27-2.65.14-.09.41-.25.7-.12.29.13.34.44.37.6.23,1.33.3,2.36.22,3.35-.03.35-.11.75-.56,1.04-1.17.77-2.31,1.35-3.47,1.78-.85.31-1.73.53-2.57.74-.24.06-.49.12-.73.18-.73.19-1.48.35-2.2.51-.39.09-.79.17-1.18.27-.51.12-1.02.2-1.52.28-.42.07-.86.14-1.27.23-.99.21-2.01.36-2.99.51l-.52.08c-.95.14-1.96.26-3.01.35-.95.08-1.91.16-2.86.24-.51.04-1.03.09-1.54.13Z"/>
</svg>